<svg xmlns="http://www.w3.org/2000/svg" xmlns:xlink="http://www.w3.org/1999/xlink" width="500" zoomAndPan="magnify" viewBox="0 0 375 374.999991" height="500" preserveAspectRatio="xMidYMid meet" version="1.0"><defs><g/><clipPath id="b8b3ef2b89"><path d="M 105.757812 75.167969 L 273 75.167969 L 273 220.667969 L 105.757812 220.667969 Z M 105.757812 75.167969 " clip-rule="nonzero"/></clipPath></defs><g clip-path="url(#b8b3ef2b89)"><path fill="#ffffff" d="M 106.390625 149.074219 C 106.390625 149.363281 106.394531 149.652344 106.398438 149.941406 C 106.554688 159.699219 108.898438 169.132812 113.359375 177.972656 C 115.503906 182.21875 118.136719 186.304688 121.1875 190.117188 C 124.207031 193.890625 127.664062 197.425781 131.457031 200.628906 C 135.246094 203.828125 139.40625 206.722656 143.820312 209.230469 C 148.273438 211.761719 153.027344 213.917969 157.945312 215.644531 C 167.699219 219.066406 178 220.800781 188.585938 220.800781 C 189.101562 220.800781 189.621094 220.796875 190.140625 220.785156 C 201.273438 220.609375 212.046875 218.535156 222.15625 214.621094 C 227.015625 212.738281 231.699219 210.429688 236.070312 207.757812 C 240.402344 205.109375 244.46875 202.085938 248.152344 198.765625 C 251.84375 195.441406 255.183594 191.796875 258.078125 187.929688 C 261.007812 184.023438 263.507812 179.855469 265.515625 175.542969 C 268.722656 168.652344 270.667969 161.457031 271.328125 154.070312 C 272.617188 149.976562 272.988281 145.171875 272.398438 139.847656 C 272.359375 139.496094 272.136719 139.1875 271.8125 139.042969 C 271.492188 138.894531 271.117188 138.929688 270.824219 139.132812 C 270.492188 139.363281 270.125 139.554688 269.738281 139.699219 C 269.710938 139.710938 269.679688 139.722656 269.648438 139.734375 C 269.601562 139.75 269.558594 139.765625 269.511719 139.78125 C 269.511719 139.78125 269.511719 139.78125 269.507812 139.785156 C 269.496094 139.789062 269.484375 139.792969 269.46875 139.796875 C 269.429688 139.8125 269.390625 139.828125 269.351562 139.851562 C 268.757812 140.164062 268.144531 140.351562 267.484375 140.417969 C 267.265625 140.441406 267.042969 140.449219 266.8125 140.445312 C 266.789062 140.445312 266.761719 140.445312 266.738281 140.445312 C 265.820312 140.492188 264.984375 140.324219 264.179688 139.933594 C 264.128906 139.90625 264.074219 139.886719 264.019531 139.871094 C 263.132812 139.609375 262.378906 139.148438 261.722656 138.460938 C 261.71875 138.457031 261.714844 138.453125 261.710938 138.449219 C 261.707031 138.445312 261.703125 138.441406 261.699219 138.4375 C 261.539062 138.28125 261.390625 138.125 261.253906 137.964844 C 260.933594 137.59375 260.65625 137.203125 260.425781 136.789062 C 260.425781 136.785156 260.421875 136.785156 260.421875 136.785156 C 260.359375 136.667969 260.296875 136.550781 260.238281 136.429688 C 260.230469 136.414062 260.226562 136.398438 260.21875 136.382812 C 260.054688 136.035156 259.914062 135.671875 259.800781 135.285156 L 259.785156 135.164062 C 259.773438 135.089844 259.753906 135.015625 259.726562 134.945312 C 259.644531 134.730469 259.488281 134.550781 259.289062 134.4375 C 259.019531 134.28125 258.695312 134.261719 258.40625 134.378906 C 256.910156 134.996094 255.296875 135.289062 253.617188 135.253906 C 253.59375 135.253906 253.566406 135.253906 253.542969 135.253906 C 251.464844 135.363281 249.480469 134.96875 247.652344 134.074219 C 247.601562 134.046875 247.546875 134.027344 247.496094 134.011719 C 245.855469 133.527344 244.371094 132.71875 243.074219 131.597656 C 242.773438 131.335938 242.484375 131.0625 242.207031 130.769531 C 242.199219 130.761719 242.1875 130.753906 242.179688 130.746094 C 240.132812 128.75 238.695312 126.347656 237.910156 123.605469 L 237.808594 122.910156 L 237.304688 119.429688 C 237.300781 119.015625 237.316406 118.597656 237.339844 118.1875 C 237.34375 118.117188 237.351562 118.050781 237.355469 117.980469 C 237.378906 117.675781 237.261719 117.378906 237.042969 117.171875 C 237.019531 117.152344 237 117.132812 236.976562 117.113281 C 236.957031 117.101562 236.941406 117.085938 236.921875 117.074219 C 236.902344 117.0625 236.882812 117.050781 236.863281 117.039062 C 236.835938 117.019531 236.804688 117.003906 236.773438 116.992188 C 236.765625 116.988281 236.753906 116.984375 236.746094 116.980469 C 236.734375 116.972656 236.71875 116.96875 236.703125 116.960938 C 236.699219 116.960938 236.691406 116.957031 236.6875 116.953125 C 236.648438 116.941406 236.605469 116.929688 236.566406 116.921875 C 236.566406 116.921875 236.5625 116.921875 236.558594 116.917969 C 236.347656 116.875 236.121094 116.898438 235.917969 116.996094 C 235.578125 117.160156 235.226562 117.296875 234.867188 117.40625 C 234.8125 117.421875 234.753906 117.4375 234.699219 117.453125 C 234.5 116.964844 234.417969 116.449219 234.445312 115.902344 C 234.523438 114.289062 235.550781 112.671875 236.398438 111.601562 C 237.363281 110.378906 238.332031 109.558594 238.339844 109.554688 C 238.546875 109.382812 238.671875 109.136719 238.695312 108.871094 C 239.054688 104.917969 238.570312 101.09375 237.265625 97.5 C 236.207031 94.601562 234.617188 91.851562 232.535156 89.328125 C 229.121094 85.191406 225.242188 82.777344 224.394531 82.429688 C 224.394531 82.429688 224.394531 82.429688 224.390625 82.429688 C 214.347656 78.226562 203.714844 75.910156 192.789062 75.542969 C 181.714844 75.167969 170.660156 76.8125 159.933594 80.433594 C 145.953125 85.144531 133.660156 92.757812 124.382812 102.445312 C 119.460938 107.585938 115.429688 113.269531 112.40625 119.339844 C 109.207031 125.761719 107.121094 132.636719 106.207031 139.785156 C 106.117188 140.507812 106.035156 141.253906 105.964844 141.992188 C 105.765625 144.085938 105.863281 146.234375 106.253906 148.386719 C 106.296875 148.617188 106.34375 148.847656 106.390625 149.074219 Z M 263.691406 174.695312 C 261.742188 178.882812 259.3125 182.929688 256.46875 186.722656 C 253.648438 190.488281 250.398438 194.035156 246.808594 197.269531 C 243.214844 200.507812 239.246094 203.460938 235.019531 206.042969 C 230.75 208.648438 226.179688 210.90625 221.429688 212.746094 C 211.542969 216.574219 201.003906 218.601562 190.109375 218.777344 C 179.214844 218.949219 168.617188 217.257812 158.613281 213.746094 C 153.804688 212.0625 149.164062 209.953125 144.8125 207.484375 C 140.507812 205.035156 136.449219 202.214844 132.753906 199.09375 C 129.058594 195.972656 125.695312 192.53125 122.757812 188.859375 C 119.792969 185.15625 117.238281 181.1875 115.15625 177.066406 C 111.707031 170.234375 109.566406 163.042969 108.765625 155.617188 C 110.652344 159.183594 113.304688 162.113281 116.488281 164.132812 C 118.425781 165.363281 120.597656 166.234375 122.699219 167.074219 C 126.085938 168.429688 129.28125 169.707031 131.367188 172.339844 C 132.855469 174.222656 133.570312 176.5625 134.332031 179.039062 C 134.644531 180.0625 134.96875 181.121094 135.351562 182.140625 C 136.6875 185.703125 138.875 189.027344 141.683594 191.753906 C 144.492188 194.484375 147.878906 196.578125 151.472656 197.8125 C 154.890625 198.984375 158.113281 199.289062 161.050781 198.722656 C 165.210938 197.917969 168.730469 195.382812 172.132812 192.933594 C 176.03125 190.128906 179.714844 187.476562 184.109375 187.445312 C 184.136719 187.445312 184.160156 187.445312 184.1875 187.445312 C 188.863281 187.445312 192.746094 190.402344 196.851562 193.535156 C 200.734375 196.496094 204.75 199.558594 209.644531 200.09375 C 210.128906 200.148438 210.617188 200.175781 211.105469 200.175781 C 214 200.175781 216.953125 199.246094 219.730469 197.453125 C 222.558594 195.625 225.167969 192.898438 227.078125 189.773438 C 228.148438 188.023438 229.054688 186.167969 229.929688 184.375 C 230.984375 182.210938 232.074219 179.972656 233.433594 177.984375 C 235.238281 175.351562 237.652344 173.027344 240.417969 171.261719 C 243.179688 169.496094 246.304688 168.28125 249.453125 167.75 C 250.773438 167.527344 252.164062 167.40625 253.507812 167.289062 C 256.582031 167.019531 259.761719 166.738281 262.613281 165.265625 C 264.75 164.164062 266.683594 162.472656 268.207031 160.378906 C 268.292969 160.257812 268.378906 160.136719 268.464844 160.015625 C 267.496094 165.03125 265.90625 169.9375 263.691406 174.695312 Z M 223.972656 84.777344 C 224.035156 84.710938 224.09375 84.648438 224.15625 84.582031 C 224.609375 84.855469 225.328125 85.324219 226.230469 86.015625 C 227.457031 86.960938 229.289062 88.539062 231.058594 90.703125 C 232.976562 93.042969 234.433594 95.582031 235.398438 98.257812 C 236.542969 101.429688 236.988281 104.804688 236.726562 108.296875 C 235.699219 109.238281 232.605469 112.351562 232.433594 115.796875 C 232.402344 116.476562 232.480469 117.125 232.667969 117.742188 C 232.574219 117.742188 232.480469 117.742188 232.386719 117.742188 C 232.363281 117.742188 232.335938 117.742188 232.3125 117.742188 C 230.945312 117.816406 229.644531 117.554688 228.445312 116.96875 C 228.394531 116.941406 228.34375 116.921875 228.289062 116.90625 C 227.957031 116.808594 227.636719 116.691406 227.324219 116.554688 C 226.800781 116.320312 226.304688 116.03125 225.839844 115.683594 C 225.683594 115.570312 225.535156 115.449219 225.386719 115.320312 C 225.253906 115.207031 225.125 115.089844 225 114.964844 C 224.9375 114.90625 224.875 114.839844 224.816406 114.777344 C 224.808594 114.769531 224.800781 114.761719 224.792969 114.753906 C 224.367188 114.339844 223.984375 113.902344 223.640625 113.441406 C 222.886719 112.421875 222.324219 111.28125 221.964844 110.039062 L 221.9375 109.847656 L 221.558594 107.230469 C 221.546875 105.6875 221.855469 104.207031 222.46875 102.816406 C 222.488281 102.773438 222.507812 102.730469 222.527344 102.6875 C 222.53125 102.675781 222.535156 102.664062 222.539062 102.65625 C 222.628906 102.460938 222.726562 102.269531 222.824219 102.078125 L 223.859375 100.679688 L 224.605469 99.667969 C 224.625 99.648438 224.640625 99.628906 224.660156 99.609375 C 224.664062 99.605469 224.664062 99.605469 224.664062 99.601562 C 224.667969 99.601562 224.667969 99.601562 224.667969 99.597656 C 224.730469 99.535156 224.796875 99.464844 224.867188 99.394531 C 224.96875 99.292969 225.042969 99.171875 225.09375 99.042969 C 225.128906 98.945312 225.152344 98.84375 225.15625 98.738281 C 225.160156 98.703125 225.160156 98.667969 225.15625 98.628906 C 225.152344 98.558594 225.140625 98.488281 225.125 98.421875 C 225.070312 98.21875 224.949219 98.039062 224.785156 97.902344 C 224.5625 97.722656 224.34375 97.523438 224.140625 97.308594 C 224.136719 97.304688 224.128906 97.300781 224.125 97.292969 C 224.121094 97.289062 224.121094 97.289062 224.117188 97.285156 C 223 96.195312 222.210938 94.886719 221.777344 93.390625 L 221.664062 92.605469 L 221.4375 91.042969 C 221.429688 89.8125 221.664062 88.632812 222.136719 87.519531 C 222.167969 87.445312 222.203125 87.371094 222.234375 87.296875 C 222.3125 87.128906 222.394531 86.960938 222.484375 86.796875 Z M 107.964844 142.179688 C 108.035156 141.464844 108.113281 140.742188 108.203125 140.039062 C 109.089844 133.117188 111.109375 126.453125 114.207031 120.238281 C 117.140625 114.351562 121.050781 108.832031 125.835938 103.839844 C 134.886719 94.382812 146.902344 86.949219 160.578125 82.335938 C 171.074219 78.796875 181.890625 77.1875 192.722656 77.550781 C 202.910156 77.894531 212.835938 79.96875 222.25 83.726562 L 220.820312 85.660156 C 220.792969 85.695312 220.769531 85.738281 220.746094 85.777344 C 220.183594 86.816406 219.800781 87.910156 219.597656 89.046875 C 219.578125 89.160156 219.558594 89.273438 219.539062 89.386719 C 219.457031 89.957031 219.417969 90.539062 219.425781 91.132812 C 219.425781 91.175781 219.429688 91.21875 219.4375 91.261719 L 219.796875 93.746094 C 219.800781 93.789062 219.8125 93.832031 219.824219 93.875 C 220.316406 95.617188 221.199219 97.15625 222.445312 98.457031 C 222.527344 98.542969 222.613281 98.628906 222.699219 98.714844 C 222.722656 98.734375 222.742188 98.757812 222.761719 98.777344 L 221.164062 100.941406 C 221.136719 100.980469 221.113281 101.019531 221.089844 101.0625 C 220.828125 101.546875 220.597656 102.042969 220.402344 102.546875 C 219.8125 104.0625 219.527344 105.664062 219.546875 107.320312 C 219.546875 107.363281 219.550781 107.40625 219.558594 107.449219 L 219.984375 110.394531 C 219.988281 110.4375 220 110.480469 220.011719 110.523438 C 220.085938 110.796875 220.171875 111.0625 220.265625 111.324219 C 220.917969 113.167969 221.960938 114.796875 223.375 116.179688 C 224.578125 117.433594 226.011719 118.320312 227.640625 118.8125 C 229.117188 119.519531 230.710938 119.835938 232.382812 119.753906 C 233.386719 119.769531 234.359375 119.644531 235.292969 119.375 C 235.292969 119.425781 235.292969 119.472656 235.296875 119.519531 C 235.296875 119.5625 235.300781 119.609375 235.304688 119.652344 L 235.929688 123.960938 C 235.933594 124.003906 235.945312 124.046875 235.957031 124.089844 C 236.503906 126.03125 237.34375 127.824219 238.457031 129.441406 C 238.683594 129.765625 238.917969 130.085938 239.160156 130.394531 C 239.285156 130.550781 239.410156 130.703125 239.539062 130.855469 C 239.921875 131.3125 240.332031 131.75 240.765625 132.171875 C 242.480469 133.960938 244.523438 135.21875 246.84375 135.917969 C 248.953125 136.929688 251.230469 137.386719 253.613281 137.265625 C 255.175781 137.292969 256.691406 137.078125 258.132812 136.617188 C 258.605469 137.84375 259.328125 138.929688 260.28125 139.863281 C 261.15625 140.773438 262.195312 141.414062 263.371094 141.777344 C 264.445312 142.285156 265.597656 142.515625 266.808594 142.457031 C 268.015625 142.472656 269.164062 142.210938 270.21875 141.667969 C 270.324219 141.628906 270.433594 141.589844 270.539062 141.550781 C 271.097656 148.769531 269.738281 154.847656 266.578125 159.195312 C 265.238281 161.039062 263.550781 162.519531 261.691406 163.480469 C 259.191406 164.769531 256.34375 165.019531 253.332031 165.285156 C 251.949219 165.40625 250.515625 165.53125 249.117188 165.765625 C 245.707031 166.339844 242.324219 167.65625 239.332031 169.566406 C 236.34375 171.476562 233.730469 173.996094 231.777344 176.847656 C 230.332031 178.957031 229.207031 181.261719 228.121094 183.492188 C 227.265625 185.246094 226.382812 187.054688 225.363281 188.722656 C 223.605469 191.597656 221.21875 194.097656 218.636719 195.765625 C 215.785156 197.605469 212.753906 198.414062 209.863281 198.097656 C 205.527344 197.621094 201.902344 194.859375 198.070312 191.933594 C 193.878906 188.738281 189.542969 185.433594 184.1875 185.433594 C 184.15625 185.433594 184.125 185.433594 184.09375 185.433594 C 179.058594 185.46875 174.941406 188.433594 170.957031 191.300781 C 167.730469 193.625 164.394531 196.027344 160.667969 196.746094 C 158.082031 197.246094 155.207031 196.964844 152.125 195.910156 C 148.808594 194.773438 145.683594 192.835938 143.085938 190.3125 C 140.488281 187.789062 138.46875 184.71875 137.238281 181.4375 C 136.875 180.472656 136.558594 179.441406 136.253906 178.449219 C 135.472656 175.902344 134.667969 173.269531 132.945312 171.09375 C 130.527344 168.039062 126.929688 166.597656 123.445312 165.207031 C 121.429688 164.398438 119.347656 163.566406 117.566406 162.433594 C 114.382812 160.414062 111.78125 157.382812 110.039062 153.664062 C 108.34375 150.042969 107.605469 145.964844 107.964844 142.179688 Z M 107.964844 142.179688 " fill-opacity="1" fill-rule="nonzero"/></g><path fill="#ffffff" d="M 170.347656 149.660156 C 173.4375 150.730469 176.699219 151.414062 179.195312 151.886719 C 181.960938 152.414062 184.816406 152.957031 187.722656 153.023438 C 188.015625 153.03125 188.308594 153.035156 188.601562 153.035156 C 192.496094 153.035156 196.703125 152.441406 200.542969 151.34375 C 205.441406 149.941406 209.53125 147.769531 212.367188 145.058594 C 215.519531 142.050781 217.164062 138.417969 217.253906 134.261719 C 217.320312 131.332031 216.257812 128.28125 214.335938 125.898438 C 212.308594 123.378906 209.59375 121.878906 206.695312 121.675781 C 204.09375 121.492188 201.652344 122.292969 199.289062 123.066406 C 198.074219 123.460938 196.820312 123.871094 195.59375 124.125 C 192.539062 124.757812 189.257812 124.480469 186.351562 123.339844 C 185.042969 122.824219 183.816406 122.152344 182.515625 121.4375 C 180.960938 120.585938 179.355469 119.703125 177.601562 119.121094 C 172.964844 117.585938 167.632812 118.414062 163.679688 121.28125 C 159.726562 124.148438 157.285156 128.964844 157.304688 133.847656 C 157.320312 138.007812 158.652344 141.515625 161.261719 144.265625 C 163.398438 146.515625 166.371094 148.28125 170.347656 149.660156 Z M 187.769531 151.011719 C 185.03125 150.949219 182.253906 150.421875 179.570312 149.910156 C 177.855469 149.585938 175.773438 149.160156 173.652344 148.578125 C 170.945312 146.78125 169.449219 144.578125 169.414062 142.261719 C 169.371094 139.589844 171.277344 136.996094 174.78125 134.964844 C 178.464844 132.828125 183.414062 131.605469 188.714844 131.519531 C 194.015625 131.433594 199 132.5 202.753906 134.519531 C 206.320312 136.4375 208.308594 138.964844 208.351562 141.640625 C 208.382812 143.707031 207.253906 145.722656 205.125 147.46875 C 200.597656 149.628906 194.539062 151.171875 187.769531 151.011719 Z M 164.859375 122.910156 C 167.15625 121.246094 169.984375 120.371094 172.8125 120.371094 C 174.222656 120.371094 175.628906 120.585938 176.96875 121.03125 C 178.546875 121.554688 180.003906 122.355469 181.550781 123.199219 C 182.847656 123.914062 184.191406 124.648438 185.617188 125.210938 C 188.878906 126.492188 192.570312 126.808594 196.003906 126.09375 C 197.339844 125.816406 198.648438 125.390625 199.914062 124.976562 C 202.191406 124.230469 204.347656 123.527344 206.554688 123.683594 C 208.886719 123.847656 211.097656 125.082031 212.769531 127.160156 C 214.398438 129.179688 215.300781 131.753906 215.246094 134.21875 C 215.164062 137.820312 213.730469 140.976562 210.980469 143.605469 C 210.621094 143.949219 210.222656 144.289062 209.792969 144.628906 C 210.1875 143.648438 210.378906 142.636719 210.359375 141.609375 C 210.332031 139.839844 209.695312 138.148438 208.46875 136.578125 C 207.328125 135.125 205.726562 133.835938 203.707031 132.746094 C 199.65625 130.570312 194.320312 129.417969 188.683594 129.507812 C 183.046875 129.597656 177.75 130.917969 173.769531 133.226562 C 171.785156 134.375 170.226562 135.714844 169.136719 137.207031 C 167.957031 138.816406 167.375 140.527344 167.402344 142.296875 C 167.429688 143.949219 167.988281 145.535156 169.0625 147.015625 C 166.363281 145.882812 164.277344 144.519531 162.722656 142.878906 C 160.445312 140.480469 159.332031 137.523438 159.316406 133.839844 C 159.296875 129.589844 161.421875 125.402344 164.859375 122.910156 Z M 164.859375 122.910156 " fill-opacity="1" fill-rule="nonzero"/><path fill="#ffffff" d="M 258.875 172.214844 C 258.429688 171.882812 257.800781 171.96875 257.464844 172.414062 C 250.097656 182.167969 240.359375 190.085938 229.308594 195.3125 C 228.808594 195.546875 228.59375 196.148438 228.832031 196.648438 C 229 197.011719 229.363281 197.226562 229.738281 197.226562 C 229.882812 197.226562 230.03125 197.195312 230.167969 197.128906 C 241.511719 191.765625 251.507812 183.636719 259.070312 173.625 C 259.40625 173.179688 259.316406 172.550781 258.875 172.214844 Z M 258.875 172.214844 " fill-opacity="1" fill-rule="nonzero"/><path fill="#ffffff" d="M 206.398438 202.832031 C 200.273438 204.277344 193.527344 204.789062 185.773438 204.398438 C 179.636719 204.089844 173.09375 203.238281 165.183594 201.71875 C 165.183594 201.71875 165.179688 201.714844 165.175781 201.714844 C 164.703125 201.425781 164.085938 201.570312 163.792969 202.046875 C 163.507812 202.511719 163.648438 203.117188 164.101562 203.414062 L 164.105469 203.417969 C 164.195312 203.480469 164.414062 203.640625 164.722656 203.679688 C 172.761719 205.226562 179.421875 206.09375 185.671875 206.40625 C 187.375 206.492188 189.03125 206.535156 190.648438 206.535156 C 196.5625 206.535156 201.902344 205.960938 206.859375 204.789062 C 207.398438 204.664062 207.734375 204.121094 207.605469 203.582031 C 207.480469 203.039062 206.9375 202.707031 206.398438 202.832031 Z M 206.398438 202.832031 " fill-opacity="1" fill-rule="nonzero"/><path fill="#ffffff" d="M 131.351562 184.769531 C 126.265625 180.566406 121.738281 175.539062 117.890625 169.832031 C 117.582031 169.371094 116.957031 169.25 116.496094 169.558594 C 116.035156 169.871094 115.914062 170.496094 116.222656 170.957031 C 120.175781 176.824219 124.835938 181.992188 130.070312 186.320312 C 130.257812 186.472656 130.484375 186.550781 130.710938 186.550781 C 131 186.550781 131.289062 186.425781 131.484375 186.183594 C 131.839844 185.757812 131.78125 185.121094 131.351562 184.769531 Z M 131.351562 184.769531 " fill-opacity="1" fill-rule="nonzero"/><path fill="#ffffff" d="M 247.246094 144.746094 C 247.371094 144.746094 247.496094 144.722656 247.621094 144.675781 L 252.011719 142.902344 C 252.527344 142.695312 252.777344 142.109375 252.570312 141.59375 C 252.363281 141.078125 251.777344 140.828125 251.261719 141.039062 L 246.867188 142.808594 C 246.351562 143.015625 246.105469 143.601562 246.3125 144.117188 C 246.46875 144.507812 246.847656 144.746094 247.246094 144.746094 Z M 247.246094 144.746094 " fill-opacity="1" fill-rule="nonzero"/><path fill="#ffffff" d="M 143.730469 147.683594 C 143.875 148.097656 144.265625 148.359375 144.683594 148.359375 C 144.789062 148.359375 144.902344 148.339844 145.011719 148.304688 L 149.488281 146.753906 C 150.011719 146.570312 150.289062 146 150.109375 145.472656 C 149.925781 144.949219 149.351562 144.671875 148.828125 144.851562 L 144.351562 146.402344 C 143.828125 146.585938 143.550781 147.15625 143.730469 147.683594 Z M 143.730469 147.683594 " fill-opacity="1" fill-rule="nonzero"/><path fill="#ffffff" d="M 151.527344 114.851562 C 151.722656 115.128906 152.035156 115.277344 152.351562 115.277344 C 152.550781 115.277344 152.753906 115.21875 152.929688 115.097656 L 156.808594 112.378906 C 157.261719 112.0625 157.375 111.433594 157.054688 110.980469 C 156.738281 110.523438 156.109375 110.414062 155.65625 110.734375 L 151.773438 113.449219 C 151.320312 113.769531 151.207031 114.394531 151.527344 114.851562 Z M 151.527344 114.851562 " fill-opacity="1" fill-rule="nonzero"/><path fill="#ffffff" d="M 186.132812 100.914062 C 186.324219 100.914062 186.515625 100.859375 186.6875 100.746094 L 190.636719 98.136719 C 191.101562 97.832031 191.230469 97.207031 190.925781 96.742188 C 190.617188 96.28125 189.992188 96.152344 189.53125 96.457031 L 185.578125 99.066406 C 185.113281 99.375 184.988281 99.996094 185.292969 100.460938 C 185.484375 100.753906 185.804688 100.914062 186.132812 100.914062 Z M 186.132812 100.914062 " fill-opacity="1" fill-rule="nonzero"/><path fill="#ffffff" d="M 127.011719 135.46875 C 127.210938 135.707031 127.5 135.832031 127.789062 135.832031 C 128.011719 135.832031 128.242188 135.753906 128.429688 135.597656 C 128.855469 135.242188 128.914062 134.609375 128.558594 134.183594 L 125.535156 130.539062 C 125.179688 130.109375 124.546875 130.050781 124.117188 130.40625 C 123.691406 130.761719 123.632812 131.394531 123.988281 131.824219 Z M 127.011719 135.46875 " fill-opacity="1" fill-rule="nonzero"/><path fill="#ffffff" d="M 135 103.289062 L 139.585938 104.480469 C 139.671875 104.503906 139.753906 104.515625 139.839844 104.515625 C 140.285156 104.515625 140.695312 104.214844 140.8125 103.761719 C 140.953125 103.222656 140.628906 102.675781 140.089844 102.535156 L 135.507812 101.34375 C 134.96875 101.203125 134.421875 101.527344 134.28125 102.066406 C 134.140625 102.601562 134.464844 103.152344 135 103.289062 Z M 135 103.289062 " fill-opacity="1" fill-rule="nonzero"/><path fill="#ffffff" d="M 176.367188 167.019531 C 176.113281 166.527344 175.507812 166.332031 175.011719 166.585938 C 174.519531 166.839844 174.324219 167.445312 174.578125 167.9375 L 176.738281 172.152344 C 176.917969 172.5 177.269531 172.699219 177.636719 172.699219 C 177.789062 172.699219 177.945312 172.664062 178.09375 172.589844 C 178.585938 172.335938 178.78125 171.730469 178.527344 171.234375 Z M 176.367188 167.019531 " fill-opacity="1" fill-rule="nonzero"/><path fill="#ffffff" d="M 217.183594 175.863281 C 216.703125 175.589844 216.085938 175.753906 215.8125 176.234375 L 213.449219 180.339844 C 213.171875 180.824219 213.339844 181.4375 213.820312 181.714844 C 213.980469 181.804688 214.152344 181.847656 214.320312 181.847656 C 214.667969 181.847656 215.007812 181.667969 215.195312 181.34375 L 217.554688 177.238281 C 217.832031 176.757812 217.664062 176.140625 217.183594 175.863281 Z M 217.183594 175.863281 " fill-opacity="1" fill-rule="nonzero"/><path fill="#ffffff" d="M 225.484375 151.519531 C 225.21875 151.035156 224.605469 150.855469 224.117188 151.125 C 223.632812 151.390625 223.453125 152.003906 223.722656 152.488281 L 226.003906 156.640625 C 226.1875 156.972656 226.53125 157.160156 226.886719 157.160156 C 227.050781 157.160156 227.214844 157.121094 227.371094 157.039062 C 227.855469 156.769531 228.035156 156.160156 227.765625 155.671875 Z M 225.484375 151.519531 " fill-opacity="1" fill-rule="nonzero"/><path fill="#ffffff" d="M 150.523438 164.386719 C 150.042969 164.109375 149.429688 164.277344 149.152344 164.757812 L 146.792969 168.863281 C 146.515625 169.34375 146.679688 169.960938 147.160156 170.238281 C 147.320312 170.328125 147.492188 170.371094 147.660156 170.371094 C 148.011719 170.371094 148.347656 170.191406 148.535156 169.867188 L 150.894531 165.761719 C 151.171875 165.277344 151.007812 164.664062 150.523438 164.386719 Z M 150.523438 164.386719 " fill-opacity="1" fill-rule="nonzero"/><path fill="#ffffff" d="M 226.136719 127.683594 C 226.335938 127.933594 226.628906 128.0625 226.921875 128.0625 C 227.144531 128.0625 227.363281 127.992188 227.550781 127.84375 C 227.984375 127.496094 228.054688 126.863281 227.707031 126.429688 L 224.75 122.730469 C 224.402344 122.296875 223.769531 122.226562 223.335938 122.570312 C 222.902344 122.917969 222.832031 123.550781 223.179688 123.984375 Z M 226.136719 127.683594 " fill-opacity="1" fill-rule="nonzero"/><path fill="#ffffff" d="M 171.183594 89.21875 L 175.066406 91.933594 C 175.242188 92.058594 175.441406 92.117188 175.640625 92.117188 C 175.957031 92.117188 176.269531 91.964844 176.464844 91.6875 C 176.785156 91.230469 176.671875 90.605469 176.21875 90.285156 L 172.335938 87.570312 C 171.882812 87.253906 171.253906 87.363281 170.9375 87.820312 C 170.617188 88.273438 170.726562 88.902344 171.183594 89.21875 Z M 171.183594 89.21875 " fill-opacity="1" fill-rule="nonzero"/><path fill="#ffffff" d="M 215.851562 96.652344 C 215.960938 96.652344 216.070312 96.632812 216.179688 96.59375 L 217.617188 96.09375 C 218.144531 95.914062 218.421875 95.339844 218.238281 94.816406 C 218.054688 94.289062 217.484375 94.011719 216.957031 94.195312 L 215.519531 94.695312 C 214.996094 94.878906 214.71875 95.449219 214.902344 95.976562 C 215.046875 96.390625 215.433594 96.652344 215.851562 96.652344 Z M 215.851562 96.652344 " fill-opacity="1" fill-rule="nonzero"/><path fill="#ffffff" d="M 261.519531 152.148438 C 261.714844 152.433594 262.03125 152.585938 262.351562 152.585938 C 262.546875 152.585938 262.746094 152.527344 262.917969 152.410156 C 263.378906 152.09375 263.496094 151.46875 263.179688 151.011719 L 260.503906 147.105469 C 260.1875 146.644531 259.5625 146.527344 259.105469 146.84375 C 258.648438 147.15625 258.53125 147.78125 258.84375 148.242188 Z M 261.519531 152.148438 " fill-opacity="1" fill-rule="nonzero"/><path fill="#ffffff" d="M 142.136719 121.898438 L 146.71875 123.089844 C 146.804688 123.113281 146.890625 123.125 146.972656 123.125 C 147.421875 123.125 147.828125 122.824219 147.945312 122.371094 C 148.085938 121.832031 147.761719 121.285156 147.226562 121.144531 L 142.640625 119.953125 C 142.105469 119.8125 141.554688 120.136719 141.414062 120.671875 C 141.273438 121.210938 141.597656 121.761719 142.136719 121.898438 Z M 142.136719 121.898438 " fill-opacity="1" fill-rule="nonzero"/><path fill="#ffffff" d="M 164.832031 160.421875 C 165.175781 160.421875 165.511719 160.242188 165.699219 159.925781 C 165.980469 159.445312 165.820312 158.832031 165.34375 158.546875 L 161.261719 156.148438 C 160.78125 155.867188 160.164062 156.023438 159.882812 156.503906 C 159.601562 156.984375 159.761719 157.597656 160.242188 157.878906 L 164.324219 160.28125 C 164.484375 160.375 164.660156 160.421875 164.832031 160.421875 Z M 164.832031 160.421875 " fill-opacity="1" fill-rule="nonzero"/><path fill="#ffffff" d="M 196.28125 161.5 L 192.183594 163.882812 C 191.703125 164.160156 191.539062 164.777344 191.820312 165.257812 C 192.007812 165.578125 192.34375 165.757812 192.691406 165.757812 C 192.863281 165.757812 193.035156 165.710938 193.195312 165.621094 L 197.289062 163.242188 C 197.769531 162.960938 197.933594 162.347656 197.652344 161.867188 C 197.375 161.386719 196.757812 161.222656 196.28125 161.5 Z M 196.28125 161.5 " fill-opacity="1" fill-rule="nonzero"/><path fill="#ffffff" d="M 124.667969 151.148438 C 124.1875 151.425781 124.027344 152.042969 124.304688 152.523438 C 124.492188 152.84375 124.828125 153.023438 125.175781 153.023438 C 125.347656 153.023438 125.519531 152.980469 125.679688 152.886719 L 129.773438 150.507812 C 130.253906 150.226562 130.417969 149.613281 130.140625 149.132812 C 129.859375 148.652344 129.246094 148.488281 128.765625 148.769531 Z M 124.667969 151.148438 " fill-opacity="1" fill-rule="nonzero"/><path fill="#ffffff" d="M 195.777344 174.425781 L 191.765625 176.941406 C 191.296875 177.238281 191.152344 177.859375 191.449219 178.328125 C 191.640625 178.632812 191.96875 178.800781 192.300781 178.800781 C 192.484375 178.800781 192.667969 178.75 192.835938 178.644531 L 196.847656 176.128906 C 197.316406 175.832031 197.460938 175.210938 197.164062 174.742188 C 196.871094 174.269531 196.25 174.128906 195.777344 174.425781 Z M 195.777344 174.425781 " fill-opacity="1" fill-rule="nonzero"/><path fill="#ffffff" d="M 175.316406 102.015625 L 173.492188 106.386719 C 173.28125 106.898438 173.523438 107.488281 174.035156 107.703125 C 174.160156 107.753906 174.292969 107.78125 174.421875 107.78125 C 174.816406 107.78125 175.1875 107.546875 175.351562 107.160156 L 177.171875 102.789062 C 177.386719 102.277344 177.144531 101.6875 176.632812 101.472656 C 176.117188 101.261719 175.53125 101.503906 175.316406 102.015625 Z M 175.316406 102.015625 " fill-opacity="1" fill-rule="nonzero"/><path fill="#ffffff" d="M 204.804688 91.855469 C 204.996094 92.140625 205.3125 92.292969 205.632812 92.292969 C 205.828125 92.292969 206.027344 92.234375 206.199219 92.117188 C 206.660156 91.804688 206.777344 91.175781 206.460938 90.71875 L 203.785156 86.8125 C 203.46875 86.355469 202.84375 86.238281 202.386719 86.550781 C 201.925781 86.863281 201.8125 87.492188 202.125 87.949219 Z M 204.804688 91.855469 " fill-opacity="1" fill-rule="nonzero"/><path fill="#ffffff" d="M 151.882812 99.800781 C 152.078125 100.082031 152.394531 100.238281 152.714844 100.238281 C 152.910156 100.238281 153.105469 100.179688 153.28125 100.058594 C 153.738281 99.746094 153.855469 99.121094 153.542969 98.660156 L 150.863281 94.753906 C 150.550781 94.296875 149.921875 94.179688 149.464844 94.496094 C 149.007812 94.808594 148.890625 95.433594 149.203125 95.890625 Z M 151.882812 99.800781 " fill-opacity="1" fill-rule="nonzero"/><path fill="#ffffff" d="M 236.09375 154.652344 C 235.636719 154.964844 235.519531 155.59375 235.835938 156.050781 L 238.511719 159.957031 C 238.707031 160.242188 239.023438 160.394531 239.34375 160.394531 C 239.539062 160.394531 239.738281 160.335938 239.910156 160.21875 C 240.367188 159.902344 240.484375 159.277344 240.171875 158.820312 L 237.492188 154.914062 C 237.179688 154.457031 236.554688 154.339844 236.09375 154.652344 Z M 236.09375 154.652344 " fill-opacity="1" fill-rule="nonzero"/><path fill="#ffffff" d="M 205.117188 108.816406 C 204.660156 109.128906 204.542969 109.757812 204.855469 110.214844 L 207.535156 114.121094 C 207.730469 114.40625 208.042969 114.558594 208.363281 114.558594 C 208.5625 114.558594 208.757812 114.5 208.933594 114.382812 C 209.390625 114.066406 209.507812 113.441406 209.191406 112.984375 L 206.515625 109.078125 C 206.199219 108.617188 205.574219 108.503906 205.117188 108.816406 Z M 205.117188 108.816406 " fill-opacity="1" fill-rule="nonzero"/><path fill="#ffffff" d="M 216.695312 162.703125 C 216.613281 162.15625 216.101562 161.777344 215.554688 161.855469 L 210.867188 162.550781 C 210.320312 162.632812 209.941406 163.144531 210.019531 163.695312 C 210.09375 164.195312 210.523438 164.554688 211.015625 164.554688 C 211.0625 164.554688 211.113281 164.550781 211.164062 164.542969 L 215.847656 163.847656 C 216.398438 163.765625 216.777344 163.253906 216.695312 162.703125 Z M 216.695312 162.703125 " fill-opacity="1" fill-rule="nonzero"/><path fill="#ffffff" d="M 166.683594 180.929688 L 163.027344 183.941406 C 162.597656 184.296875 162.535156 184.929688 162.890625 185.359375 C 163.089844 185.597656 163.378906 185.722656 163.667969 185.722656 C 163.890625 185.722656 164.117188 185.648438 164.304688 185.492188 L 167.960938 182.480469 C 168.390625 182.128906 168.449219 181.496094 168.097656 181.066406 C 167.746094 180.636719 167.109375 180.574219 166.683594 180.929688 Z M 166.683594 180.929688 " fill-opacity="1" fill-rule="nonzero"/><path fill="#ffffff" d="M 235.203125 134.273438 C 235.316406 134.734375 235.726562 135.039062 236.179688 135.039062 C 236.261719 135.039062 236.339844 135.03125 236.421875 135.011719 C 236.960938 134.875 237.289062 134.332031 237.15625 133.792969 L 236.019531 129.195312 C 235.886719 128.65625 235.34375 128.324219 234.804688 128.460938 C 234.265625 128.59375 233.933594 129.136719 234.066406 129.675781 Z M 235.203125 134.273438 " fill-opacity="1" fill-rule="nonzero"/><g fill="#d38b40" fill-opacity="1"><g transform="translate(40.775462, 257.842186)"><g><path d="M 34.5 -30.078125 L 32.953125 -23.0625 L 18.328125 -26.28125 L 16.65625 -18.703125 L 27.609375 -16.296875 L 26.109375 -9.5 L 15.15625 -11.90625 L 11.9375 2.640625 L 3.171875 0.703125 L 11.109375 -35.234375 Z M 34.5 -30.078125 "/></g></g></g><g fill="#d38b40" fill-opacity="1"><g transform="translate(74.905056, 265.244538)"><g><path d="M 16.3125 2.875 C 13.476562 2.457031 11.019531 1.472656 8.9375 -0.078125 C 6.863281 -1.640625 5.347656 -3.640625 4.390625 -6.078125 C 3.429688 -8.515625 3.175781 -11.238281 3.625 -14.25 C 4.070312 -17.21875 5.117188 -19.734375 6.765625 -21.796875 C 8.421875 -23.867188 10.476562 -25.335938 12.9375 -26.203125 C 15.40625 -27.066406 18.054688 -27.289062 20.890625 -26.875 C 23.722656 -26.445312 26.1875 -25.457031 28.28125 -23.90625 C 30.382812 -22.351562 31.921875 -20.34375 32.890625 -17.875 C 33.867188 -15.414062 34.132812 -12.703125 33.6875 -9.734375 C 33.238281 -6.765625 32.179688 -4.242188 30.515625 -2.171875 C 28.847656 -0.109375 26.769531 1.351562 24.28125 2.21875 C 21.800781 3.082031 19.144531 3.300781 16.3125 2.875 Z M 17.46875 -4.8125 C 19.164062 -4.550781 20.703125 -4.953125 22.078125 -6.015625 C 23.460938 -7.078125 24.328125 -8.769531 24.671875 -11.09375 C 25.015625 -13.40625 24.695312 -15.265625 23.71875 -16.671875 C 22.75 -18.085938 21.421875 -18.925781 19.734375 -19.1875 C 18.003906 -19.4375 16.476562 -19.035156 15.15625 -17.984375 C 13.832031 -16.929688 12.992188 -15.234375 12.640625 -12.890625 C 12.296875 -10.566406 12.59375 -8.703125 13.53125 -7.296875 C 14.46875 -5.890625 15.78125 -5.0625 17.46875 -4.8125 Z M 17.46875 -4.8125 "/></g></g></g><g fill="#d38b40" fill-opacity="1"><g transform="translate(114.217416, 270.917625)"><g><path d="M 16.484375 1.6875 C 13.628906 1.46875 11.109375 0.660156 8.921875 -0.734375 C 6.734375 -2.128906 5.070312 -4.007812 3.9375 -6.375 C 2.800781 -8.738281 2.347656 -11.4375 2.578125 -14.46875 C 2.804688 -17.46875 3.671875 -20.054688 5.171875 -22.234375 C 6.671875 -24.410156 8.617188 -26.019531 11.015625 -27.0625 C 13.410156 -28.113281 16.035156 -28.53125 18.890625 -28.3125 C 21.742188 -28.09375 24.273438 -27.285156 26.484375 -25.890625 C 28.691406 -24.492188 30.367188 -22.601562 31.515625 -20.21875 C 32.660156 -17.832031 33.117188 -15.140625 32.890625 -12.140625 C 32.660156 -9.148438 31.789062 -6.5625 30.28125 -4.375 C 28.769531 -2.195312 26.804688 -0.585938 24.390625 0.453125 C 21.972656 1.492188 19.335938 1.90625 16.484375 1.6875 Z M 17.078125 -6.0625 C 18.785156 -5.9375 20.285156 -6.453125 21.578125 -7.609375 C 22.878906 -8.765625 23.617188 -10.507812 23.796875 -12.84375 C 23.984375 -15.1875 23.535156 -17.023438 22.453125 -18.359375 C 21.378906 -19.703125 19.992188 -20.441406 18.296875 -20.578125 C 16.546875 -20.703125 15.050781 -20.191406 13.8125 -19.046875 C 12.570312 -17.898438 11.859375 -16.140625 11.671875 -13.765625 C 11.492188 -11.429688 11.921875 -9.597656 12.953125 -8.265625 C 13.992188 -6.929688 15.367188 -6.195312 17.078125 -6.0625 Z M 17.078125 -6.0625 "/></g></g></g><g fill="#d38b40" fill-opacity="1"><g transform="translate(153.874695, 273.755107)"><g><path d="M 1.484375 -14.671875 C 1.492188 -17.679688 2.066406 -20.320312 3.203125 -22.59375 C 4.347656 -24.863281 5.898438 -26.609375 7.859375 -27.828125 C 9.816406 -29.046875 12 -29.65625 14.40625 -29.65625 C 16.332031 -29.644531 18.085938 -29.238281 19.671875 -28.4375 C 21.265625 -27.632812 22.507812 -26.550781 23.40625 -25.1875 L 23.4375 -38.765625 L 32.40625 -38.75 L 32.34375 0.046875 L 23.375 0.03125 L 23.375 -4.15625 C 22.539062 -2.757812 21.34375 -1.640625 19.78125 -0.796875 C 18.226562 0.0351562 16.421875 0.445312 14.359375 0.4375 C 11.953125 0.4375 9.769531 -0.179688 7.8125 -1.421875 C 5.851562 -2.671875 4.304688 -4.441406 3.171875 -6.734375 C 2.046875 -9.023438 1.484375 -11.671875 1.484375 -14.671875 Z M 23.390625 -14.59375 C 23.398438 -16.832031 22.785156 -18.597656 21.546875 -19.890625 C 20.304688 -21.179688 18.796875 -21.828125 17.015625 -21.828125 C 15.234375 -21.835938 13.722656 -21.203125 12.484375 -19.921875 C 11.242188 -18.648438 10.617188 -16.894531 10.609375 -14.65625 C 10.609375 -12.425781 11.226562 -10.65625 12.46875 -9.34375 C 13.707031 -8.03125 15.21875 -7.367188 17 -7.359375 C 18.78125 -7.359375 20.289062 -8.003906 21.53125 -9.296875 C 22.769531 -10.585938 23.390625 -12.351562 23.390625 -14.59375 Z M 23.390625 -14.59375 "/></g></g></g><g fill="#4aaf58" fill-opacity="1"><g transform="translate(195.697899, 273.231707)"><g><path d="M 7.40625 -31.171875 L 8.578125 -23.8125 L 20.4375 -25.703125 L 21.53125 -18.875 L 9.671875 -16.984375 L 10.9375 -9.015625 L 24.34375 -11.140625 L 25.46875 -4.046875 L 3.203125 -0.515625 L -2.578125 -36.859375 L 19.6875 -40.390625 L 20.8125 -33.296875 Z M 7.40625 -31.171875 "/></g></g></g><g fill="#4aaf58" fill-opacity="1"><g transform="translate(226.896913, 268.246944)"><g><path d="M 0.6875 -14.734375 C 0.519531 -17.734375 0.941406 -20.398438 1.953125 -22.734375 C 2.972656 -25.066406 4.425781 -26.894531 6.3125 -28.21875 C 8.195312 -29.539062 10.34375 -30.265625 12.75 -30.390625 C 14.800781 -30.503906 16.628906 -30.179688 18.234375 -29.421875 C 19.835938 -28.671875 21.09375 -27.640625 22 -26.328125 L 21.78125 -30.453125 L 30.734375 -30.9375 L 32.296875 -1.734375 L 23.34375 -1.25 L 23.125 -5.390625 C 22.320312 -3.984375 21.164062 -2.816406 19.65625 -1.890625 C 18.144531 -0.972656 16.363281 -0.457031 14.3125 -0.34375 C 11.9375 -0.21875 9.738281 -0.722656 7.71875 -1.859375 C 5.707031 -2.992188 4.070312 -4.671875 2.8125 -6.890625 C 1.550781 -9.117188 0.84375 -11.734375 0.6875 -14.734375 Z M 22.5625 -15.859375 C 22.4375 -18.085938 21.71875 -19.816406 20.40625 -21.046875 C 19.101562 -22.273438 17.5625 -22.835938 15.78125 -22.734375 C 14.007812 -22.640625 12.535156 -21.921875 11.359375 -20.578125 C 10.191406 -19.234375 9.671875 -17.445312 9.796875 -15.21875 C 9.910156 -12.988281 10.625 -11.25 11.9375 -10 C 13.25 -8.757812 14.789062 -8.1875 16.5625 -8.28125 C 18.34375 -8.382812 19.816406 -9.113281 20.984375 -10.46875 C 22.148438 -11.820312 22.675781 -13.617188 22.5625 -15.859375 Z M 22.5625 -15.859375 "/></g></g></g><g fill="#4aaf58" fill-opacity="1"><g transform="translate(265.64851, 266.498636)"><g><path d="M 15.125 1.203125 C 12.570312 1.066406 10.320312 0.515625 8.375 -0.453125 C 6.425781 -1.429688 4.914062 -2.707031 3.84375 -4.28125 C 2.769531 -5.863281 2.210938 -7.597656 2.171875 -9.484375 L 11.015625 -9.03125 C 11.066406 -8.019531 11.492188 -7.175781 12.296875 -6.5 C 13.097656 -5.820312 14.113281 -5.453125 15.34375 -5.390625 C 16.457031 -5.335938 17.332031 -5.515625 17.96875 -5.921875 C 18.601562 -6.328125 18.9375 -6.878906 18.96875 -7.578125 C 19.007812 -8.410156 18.601562 -9.050781 17.75 -9.5 C 16.90625 -9.945312 15.519531 -10.46875 13.59375 -11.0625 C 11.519531 -11.644531 9.800781 -12.242188 8.4375 -12.859375 C 7.070312 -13.472656 5.910156 -14.390625 4.953125 -15.609375 C 4.003906 -16.828125 3.582031 -18.4375 3.6875 -20.4375 C 3.769531 -22.113281 4.3125 -23.617188 5.3125 -24.953125 C 6.3125 -26.285156 7.726562 -27.300781 9.5625 -28 C 11.394531 -28.707031 13.550781 -29 16.03125 -28.875 C 19.695312 -28.6875 22.539062 -27.628906 24.5625 -25.703125 C 26.582031 -23.785156 27.671875 -21.3125 27.828125 -18.28125 L 19.546875 -18.71875 C 19.453125 -19.738281 19.046875 -20.566406 18.328125 -21.203125 C 17.617188 -21.835938 16.65625 -22.1875 15.4375 -22.25 C 14.382812 -22.300781 13.566406 -22.140625 12.984375 -21.765625 C 12.410156 -21.398438 12.109375 -20.867188 12.078125 -20.171875 C 12.023438 -19.328125 12.429688 -18.671875 13.296875 -18.203125 C 14.171875 -17.742188 15.539062 -17.253906 17.40625 -16.734375 C 19.53125 -16.078125 21.257812 -15.441406 22.59375 -14.828125 C 23.9375 -14.210938 25.085938 -13.273438 26.046875 -12.015625 C 27.015625 -10.753906 27.46875 -9.113281 27.40625 -7.09375 C 27.320312 -5.375 26.757812 -3.867188 25.71875 -2.578125 C 24.6875 -1.285156 23.253906 -0.300781 21.421875 0.375 C 19.585938 1.050781 17.488281 1.328125 15.125 1.203125 Z M 15.125 1.203125 "/></g></g></g><g fill="#4aaf58" fill-opacity="1"><g transform="translate(298.137782, 268.263939)"><g><path d="M 32.75 -10.25 C 32.625 -9.425781 32.441406 -8.566406 32.203125 -7.671875 L 12.140625 -10.75 C 12.015625 -8.9375 12.390625 -7.476562 13.265625 -6.375 C 14.140625 -5.269531 15.316406 -4.601562 16.796875 -4.375 C 19.015625 -4.039062 20.695312 -4.738281 21.84375 -6.46875 L 31.265625 -5.015625 C 30.484375 -3.191406 29.34375 -1.613281 27.84375 -0.28125 C 26.351562 1.039062 24.59375 1.988281 22.5625 2.5625 C 20.53125 3.132812 18.34375 3.242188 16 2.890625 C 13.164062 2.453125 10.734375 1.457031 8.703125 -0.09375 C 6.679688 -1.644531 5.222656 -3.640625 4.328125 -6.078125 C 3.429688 -8.515625 3.210938 -11.234375 3.671875 -14.234375 C 4.128906 -17.242188 5.140625 -19.773438 6.703125 -21.828125 C 8.273438 -23.890625 10.257812 -25.351562 12.65625 -26.21875 C 15.0625 -27.082031 17.695312 -27.296875 20.5625 -26.859375 C 23.363281 -26.429688 25.757812 -25.460938 27.75 -23.953125 C 29.75 -22.453125 31.191406 -20.519531 32.078125 -18.15625 C 32.972656 -15.789062 33.195312 -13.15625 32.75 -10.25 Z M 24.046875 -13.96875 C 24.285156 -15.488281 23.953125 -16.773438 23.046875 -17.828125 C 22.140625 -18.878906 20.910156 -19.523438 19.359375 -19.765625 C 17.878906 -19.992188 16.5625 -19.753906 15.40625 -19.046875 C 14.257812 -18.347656 13.441406 -17.222656 12.953125 -15.671875 Z M 24.046875 -13.96875 "/></g></g></g></svg>