<svg width="109" height="75" viewBox="0 0 109 75" fill="none" xmlns="http://www.w3.org/2000/svg">
<mask id="mask0_167_2533" style="mask-type:luminance" maskUnits="userSpaceOnUse" x="23" y="0" width="64" height="55">
<path d="M23.4617 0H86.9427V54.8299H23.4617V0Z" fill="white"/>
</mask>
<g mask="url(#mask0_167_2533)">
<path d="M23.7017 27.8506C23.7017 27.9596 23.7032 28.0685 23.7046 28.1774C23.764 31.8545 24.6536 35.4095 26.3468 38.7407C27.1609 40.3408 28.1602 41.8805 29.3182 43.3172C30.4644 44.7392 31.7766 46.0713 33.2163 47.2784C34.6545 48.484 36.2336 49.5747 37.9091 50.5198C39.5994 51.4737 41.4038 52.2862 43.2706 52.9368C46.9729 54.2263 50.8828 54.8799 54.901 54.8799C55.0967 54.8799 55.2939 54.8784 55.4911 54.874C59.7169 54.8078 63.8062 54.0261 67.6435 52.5512C69.488 51.8417 71.2657 50.9717 72.9249 49.9648C74.5692 48.9668 76.1127 47.8275 77.5109 46.5762C78.9121 45.3235 80.1798 43.9501 81.2785 42.4928C82.3906 41.0208 83.3395 39.4502 84.1016 37.8251C85.3189 35.2284 86.0573 32.517 86.3079 29.7334C86.7972 28.1907 86.9381 26.3801 86.7142 24.3737C86.6993 24.2412 86.6148 24.125 86.4918 24.0705C86.3702 24.0146 86.2278 24.0278 86.1166 24.1043C85.9906 24.1912 85.8512 24.2633 85.7044 24.3178C85.6941 24.3222 85.6822 24.3266 85.6703 24.331C85.6525 24.3369 85.6362 24.3428 85.6184 24.3487C85.6184 24.3487 85.6184 24.3487 85.617 24.3502C85.6125 24.3516 85.6081 24.3531 85.6021 24.3546C85.5873 24.3605 85.5725 24.3664 85.5576 24.3752C85.3323 24.493 85.0995 24.5636 84.8489 24.5886C84.7659 24.5975 84.6814 24.6004 84.5939 24.5989C84.585 24.5989 84.5746 24.5989 84.5657 24.5989C84.2173 24.6166 83.9 24.5533 83.5945 24.4061C83.5753 24.3958 83.5545 24.3885 83.5337 24.3826C83.1972 24.2839 82.911 24.1102 82.6619 23.8512C82.6604 23.8497 82.6589 23.8482 82.6575 23.8467C82.656 23.8453 82.6545 23.8438 82.653 23.8423C82.5922 23.7834 82.5359 23.7246 82.484 23.6642C82.3624 23.5244 82.2571 23.3772 82.1696 23.2211C82.1696 23.2197 82.1682 23.2197 82.1682 23.2197C82.1444 23.1755 82.1207 23.1313 82.0985 23.0857C82.0955 23.0798 82.094 23.0739 82.0911 23.068C82.0288 22.937 81.9754 22.8001 81.9324 22.6544L81.9265 22.6088C81.922 22.5808 81.9146 22.5528 81.9042 22.5263C81.8731 22.4454 81.8138 22.3777 81.7382 22.335C81.6359 22.2761 81.5128 22.2687 81.4031 22.3129C80.8352 22.5455 80.2228 22.6559 79.5853 22.6426C79.5764 22.6426 79.566 22.6426 79.5571 22.6426C78.7683 22.6838 78.0151 22.5352 77.3212 22.1981C77.3019 22.1878 77.2811 22.1804 77.2618 22.1745C76.6391 21.992 76.0757 21.6873 75.5834 21.2648C75.4692 21.1662 75.3595 21.0632 75.2542 20.9527C75.2513 20.9498 75.2468 20.9469 75.2439 20.9439C74.4669 20.1917 73.9213 19.2864 73.6233 18.2531L73.5847 17.991L73.3934 16.6795C73.392 16.5234 73.3979 16.3659 73.4068 16.2114C73.4083 16.1849 73.4112 16.1598 73.4127 16.1334C73.4216 16.0185 73.3771 15.9067 73.2941 15.8286C73.2852 15.8213 73.2778 15.8139 73.2689 15.8066C73.2615 15.8021 73.2555 15.7963 73.2481 15.7918C73.2407 15.7874 73.2333 15.783 73.2259 15.7786C73.2155 15.7712 73.2037 15.7653 73.1918 15.7609C73.1888 15.7595 73.1844 15.758 73.1814 15.7565C73.177 15.7536 73.171 15.7521 73.1651 15.7492C73.1636 15.7492 73.1607 15.7477 73.1592 15.7462C73.1443 15.7418 73.128 15.7374 73.1132 15.7344C73.1132 15.7344 73.1117 15.7344 73.1102 15.733C73.0302 15.7168 72.9442 15.7256 72.8671 15.7624C72.7381 15.8242 72.6046 15.8757 72.4682 15.917C72.4475 15.9229 72.4252 15.9287 72.4045 15.9346C72.3288 15.7506 72.2977 15.5563 72.3081 15.3502C72.3377 14.7423 72.7277 14.1329 73.0494 13.7295C73.4157 13.2688 73.7834 12.9597 73.7864 12.9582C73.8649 12.8934 73.9124 12.8007 73.9213 12.7006C74.0577 11.2109 73.8738 9.7698 73.3786 8.41554C72.9768 7.3233 72.3733 6.287 71.583 5.33607C70.2871 3.7772 68.8148 2.86749 68.4931 2.73648C68.4931 2.73648 68.4931 2.73648 68.4916 2.73648C64.6795 1.15258 60.6436 0.279675 56.4964 0.141306C52.2929 -8.45641e-06 48.0968 0.619713 44.0253 1.98428C38.7186 3.75954 34.0525 6.62851 30.5311 10.2791C28.6629 12.2163 27.1327 14.3581 25.9851 16.6456C24.7707 19.0656 23.979 21.6564 23.632 24.3502C23.5979 24.6225 23.5668 24.9037 23.5401 25.1819C23.4644 25.9709 23.5015 26.7805 23.6498 27.5916C23.6661 27.6784 23.6839 27.7653 23.7017 27.8506ZM83.4092 37.5056C82.6693 39.0836 81.7471 40.6087 80.6676 42.038C79.5971 43.457 78.3635 44.7936 77.0009 46.0125C75.6368 47.2328 74.1303 48.3456 72.5261 49.3186C70.9054 50.3004 69.1707 51.1513 67.3677 51.8446C63.6149 53.2872 59.6146 54.0512 55.4793 54.1174C51.344 54.1822 47.3214 53.5448 43.5241 52.2214C41.6989 51.587 39.9374 50.7921 38.2857 49.8618C36.6517 48.9388 35.1112 47.876 33.7085 46.6999C32.3059 45.5237 31.0293 44.2269 29.9143 42.8432C28.7889 41.4477 27.8192 39.9521 27.0289 38.3992C25.7197 35.8246 24.9071 33.1146 24.6032 30.3163C25.3193 31.6602 26.3261 32.7643 27.5345 33.5253C28.2699 33.989 29.0943 34.3172 29.892 34.6337C31.1775 35.1445 32.3904 35.6259 33.1822 36.618C33.7471 37.3275 34.0184 38.2093 34.3076 39.1425C34.4262 39.5282 34.5492 39.9271 34.6945 40.3113C35.2016 41.6538 36.032 42.9065 37.098 43.934C38.1641 44.9629 39.4496 45.7519 40.8137 46.2171C42.1111 46.6587 43.3343 46.7735 44.4493 46.56C46.0284 46.2568 47.3644 45.3015 48.6558 44.3785C50.1355 43.3216 51.5338 42.3221 53.2018 42.3103C53.2122 42.3103 53.2211 42.3103 53.2315 42.3103C55.0063 42.3103 56.4801 43.4246 58.0384 44.6052C59.5122 45.721 61.0365 46.8751 62.8943 47.0767C63.0782 47.0973 63.2635 47.1076 63.4489 47.1076C64.5476 47.1076 65.6685 46.7573 66.7227 46.0816C67.7962 45.3927 68.7866 44.3653 69.5117 43.1876C69.9179 42.5282 70.2619 41.829 70.5941 41.1533C70.9944 40.3378 71.4081 39.4943 71.9241 38.7451C72.6091 37.7529 73.5254 36.8771 74.5752 36.2117C75.6234 35.5464 76.8096 35.0886 78.0047 34.8884C78.5058 34.8045 79.0337 34.7588 79.5437 34.7147C80.7106 34.6131 81.9176 34.5071 83 33.9522C83.811 33.5371 84.5449 32.8997 85.1232 32.1107C85.1558 32.065 85.1884 32.0194 85.2211 31.9738C84.8534 33.8639 84.2499 35.7127 83.4092 37.5056ZM68.3329 3.62117C68.3566 3.59614 68.3789 3.57259 68.4026 3.54756C68.5746 3.65061 68.8474 3.82725 69.1899 4.0878C69.6555 4.44403 70.3509 5.03872 71.0226 5.85422C71.7506 6.73596 72.3036 7.69278 72.6699 8.70111C73.1043 9.89639 73.2733 11.1682 73.174 12.4842C72.784 12.839 71.6097 14.0122 71.5445 15.3105C71.5326 15.5666 71.5623 15.811 71.6335 16.0436C71.5979 16.0436 71.5623 16.0436 71.5267 16.0436C71.5178 16.0436 71.5074 16.0436 71.4985 16.0436C70.9796 16.0715 70.4858 15.9729 70.0306 15.7521C70.0114 15.7418 69.9921 15.7344 69.9713 15.7285C69.8453 15.6917 69.7237 15.6476 69.6051 15.5961C69.4064 15.5077 69.2181 15.3988 69.0417 15.2678C68.9824 15.2251 68.926 15.1795 68.8697 15.1309C68.8193 15.0882 68.7703 15.0441 68.7229 14.9969C68.6992 14.9749 68.6754 14.9498 68.6532 14.9263C68.6502 14.9233 68.6473 14.9204 68.6443 14.9175C68.4827 14.7614 68.3374 14.5966 68.2069 14.4229C67.9207 14.0387 67.7072 13.6088 67.5708 13.1407L67.5604 13.0686L67.4166 12.0823C67.4122 11.5009 67.5293 10.943 67.7621 10.419C67.7695 10.4028 67.7769 10.3866 67.7843 10.3704C67.7858 10.366 67.7873 10.3616 67.7888 10.3586C67.8229 10.285 67.8599 10.2129 67.897 10.1407L68.2899 9.61377L68.5731 9.23251C68.5805 9.22515 68.5865 9.21779 68.5939 9.21043C68.5954 9.20896 68.5954 9.20896 68.5954 9.20749C68.5969 9.20749 68.5968 9.20749 68.5968 9.20602C68.6206 9.18246 68.6458 9.15597 68.6725 9.12947C68.711 9.0912 68.7392 9.04557 68.7585 8.99699C68.7718 8.96019 68.7807 8.92192 68.7822 8.88217C68.7837 8.86892 68.7837 8.85567 68.7822 8.84095C68.7807 8.81446 68.7763 8.78796 68.7703 8.76294C68.7496 8.68639 68.7036 8.61868 68.6413 8.56716C68.5568 8.49945 68.4738 8.42437 68.3967 8.34341C68.3952 8.34194 68.3922 8.34047 68.3908 8.33752C68.3893 8.33605 68.3893 8.33605 68.3878 8.33458C67.9637 7.92388 67.6642 7.43076 67.4996 6.86697L67.4566 6.5711L67.3706 5.98229C67.3677 5.5186 67.4566 5.07405 67.636 4.65452C67.6479 4.62656 67.6613 4.59859 67.6731 4.57062C67.7028 4.50732 67.7339 4.44403 67.768 4.3822L68.3329 3.62117ZM24.2992 25.2525C24.3259 24.9831 24.3556 24.7108 24.3897 24.4459C24.7262 21.8374 25.4928 19.3262 26.6686 16.9842C27.7821 14.7658 29.2663 12.6859 31.0826 10.8046C34.5181 7.24087 39.0789 4.43961 44.2699 2.70115C48.254 1.3675 52.3596 0.761027 56.4712 0.897925C60.3381 1.02746 64.1057 1.80911 67.679 3.22519L67.1364 3.95384C67.126 3.96709 67.1171 3.98328 67.1082 3.998C66.8947 4.38956 66.7494 4.80173 66.6723 5.23008C66.6649 5.27277 66.6575 5.31546 66.65 5.35815C66.6189 5.57307 66.6041 5.7924 66.607 6.01614C66.607 6.03234 66.6085 6.04853 66.6115 6.06472L66.7479 7.00093C66.7494 7.01712 66.7538 7.03331 66.7583 7.0495C66.9451 7.70603 67.2802 8.286 67.7532 8.77619C67.7843 8.80857 67.8169 8.84095 67.8496 8.87334C67.8585 8.8807 67.8659 8.88953 67.8733 8.89689L67.2669 9.71239C67.2565 9.72711 67.2476 9.74183 67.2387 9.75802C67.1393 9.94055 67.0519 10.1275 66.9777 10.3174C66.7538 10.8885 66.6456 11.4921 66.653 12.1162C66.653 12.1324 66.6545 12.1486 66.6575 12.1648L66.8191 13.2747C66.8206 13.2909 66.825 13.3071 66.8295 13.3233C66.8576 13.4263 66.8902 13.5264 66.9258 13.625C67.1734 14.3198 67.5693 14.9337 68.1061 15.4547C68.5627 15.9273 69.1069 16.2614 69.7252 16.4469C70.2857 16.7133 70.8906 16.8326 71.5252 16.8016C71.9063 16.8075 72.2755 16.7604 72.6298 16.6589C72.6298 16.678 72.6298 16.6957 72.6313 16.7133C72.6313 16.7295 72.6328 16.7472 72.6343 16.7634L72.8715 18.387C72.873 18.4032 72.8775 18.4194 72.8819 18.4356C73.0895 19.1672 73.4083 19.8428 73.8308 20.4523C73.9168 20.5744 74.0058 20.6951 74.0977 20.8114C74.1452 20.8703 74.1926 20.9277 74.2416 20.9851C74.3869 21.1574 74.5425 21.3222 74.7071 21.4812C75.358 22.1554 76.1335 22.6294 77.0142 22.8929C77.8149 23.2741 78.6793 23.4464 79.5838 23.4007C80.1769 23.411 80.7522 23.3301 81.2993 23.1564C81.4787 23.6186 81.753 24.0293 82.1148 24.3796C82.4469 24.7226 82.8413 24.964 83.2876 25.1009C83.6954 25.2923 84.1328 25.3791 84.5924 25.357C85.0506 25.3629 85.4865 25.2643 85.8868 25.0597C85.9268 25.045 85.9684 25.0303 86.0084 25.0155C86.2204 27.7358 85.7044 30.0263 84.5049 31.6647C83.9963 32.3594 83.3558 32.9173 82.65 33.2795C81.7011 33.7652 80.6202 33.8594 79.477 33.9595C78.9521 34.0052 78.408 34.0523 77.8772 34.1406C76.5828 34.357 75.2987 34.8531 74.163 35.5729C73.0287 36.2927 72.0368 37.2421 71.2954 38.3167C70.7468 39.1116 70.3198 39.9801 69.9076 40.8206C69.5829 41.4816 69.2478 42.1631 68.8608 42.7917C68.1936 43.8751 67.2876 44.8172 66.3075 45.4457C65.2252 46.139 64.0746 46.4438 62.9774 46.3245C61.3315 46.1449 59.9556 45.1042 58.501 44.0017C56.9101 42.7976 55.2643 41.5522 53.2315 41.5522C53.2196 41.5522 53.2077 41.5522 53.1959 41.5522C51.2847 41.5655 49.7219 42.6827 48.2095 43.7632C46.9848 44.6391 45.7185 45.5443 44.304 45.8152C43.3225 46.0036 42.2312 45.8976 41.0613 45.5002C39.8025 45.0718 38.6163 44.3417 37.6303 43.3908C36.6443 42.4399 35.8777 41.2828 35.4107 40.0463C35.2728 39.6828 35.1527 39.2941 35.037 38.9202C34.7405 37.9605 34.4351 36.9683 33.7812 36.1484C32.8634 34.9973 31.4978 34.4541 30.1752 33.9301C29.4101 33.6254 28.6199 33.3118 27.9437 32.885C26.7353 32.1239 25.7478 30.9816 25.0865 29.5803C24.443 28.2157 24.1628 26.6789 24.2992 25.2525Z" fill="white"/>
</g>
<mask id="mask1_167_2533" style="mask-type:luminance" maskUnits="userSpaceOnUse" x="23" y="0" width="64" height="55">
<path d="M23.4617 0H86.9427V54.8299H23.4617V0Z" fill="white"/>
</mask>
<g mask="url(#mask1_167_2533)">
<path d="M23.7017 27.8506C23.7017 27.9596 23.7032 28.0685 23.7046 28.1774C23.764 31.8545 24.6536 35.4095 26.3468 38.7407C27.1609 40.3408 28.1602 41.8805 29.3182 43.3172C30.4644 44.7392 31.7766 46.0713 33.2163 47.2784C34.6545 48.484 36.2336 49.5747 37.9091 50.5198C39.5994 51.4737 41.4038 52.2862 43.2706 52.9368C46.9729 54.2263 50.8828 54.8799 54.901 54.8799C55.0967 54.8799 55.2939 54.8784 55.4911 54.874C59.7169 54.8078 63.8062 54.0261 67.6435 52.5512C69.488 51.8417 71.2657 50.9717 72.9249 49.9648C74.5692 48.9668 76.1127 47.8275 77.5109 46.5762C78.9121 45.3235 80.1798 43.9501 81.2785 42.4928C82.3906 41.0208 83.3395 39.4502 84.1016 37.8251C85.3189 35.2284 86.0573 32.517 86.3079 29.7334C86.7972 28.1907 86.9381 26.3801 86.7142 24.3737C86.6993 24.2412 86.6148 24.125 86.4918 24.0705C86.3702 24.0146 86.2278 24.0278 86.1166 24.1043C85.9906 24.1912 85.8512 24.2633 85.7044 24.3178C85.6941 24.3222 85.6822 24.3266 85.6703 24.331C85.6525 24.3369 85.6362 24.3428 85.6184 24.3487C85.6184 24.3487 85.6184 24.3487 85.617 24.3502C85.6125 24.3516 85.6081 24.3531 85.6021 24.3546C85.5873 24.3605 85.5725 24.3664 85.5576 24.3752C85.3323 24.493 85.0995 24.5636 84.8489 24.5886C84.7659 24.5975 84.6814 24.6004 84.5939 24.5989C84.585 24.5989 84.5746 24.5989 84.5657 24.5989C84.2173 24.6166 83.9 24.5533 83.5945 24.4061C83.5753 24.3958 83.5545 24.3885 83.5337 24.3826C83.1972 24.2839 82.911 24.1102 82.6619 23.8512C82.6604 23.8497 82.6589 23.8482 82.6575 23.8467C82.656 23.8453 82.6545 23.8438 82.653 23.8423C82.5922 23.7834 82.5359 23.7246 82.484 23.6642C82.3624 23.5244 82.2571 23.3772 82.1696 23.2211C82.1696 23.2197 82.1682 23.2197 82.1682 23.2197C82.1444 23.1755 82.1207 23.1313 82.0985 23.0857C82.0955 23.0798 82.094 23.0739 82.0911 23.068C82.0288 22.937 81.9754 22.8001 81.9324 22.6544L81.9265 22.6088C81.922 22.5808 81.9146 22.5528 81.9042 22.5263C81.8731 22.4454 81.8138 22.3777 81.7382 22.335C81.6359 22.2761 81.5128 22.2687 81.4031 22.3129C80.8352 22.5455 80.2228 22.6559 79.5853 22.6426C79.5764 22.6426 79.566 22.6426 79.5571 22.6426C78.7683 22.6838 78.0151 22.5352 77.3212 22.1981C77.3019 22.1878 77.2811 22.1804 77.2618 22.1745C76.6391 21.992 76.0757 21.6873 75.5834 21.2648C75.4692 21.1662 75.3595 21.0632 75.2542 20.9527C75.2513 20.9498 75.2468 20.9469 75.2439 20.9439C74.4669 20.1917 73.9213 19.2864 73.6233 18.2531L73.5847 17.991L73.3934 16.6795C73.392 16.5234 73.3979 16.3659 73.4068 16.2114C73.4083 16.1849 73.4112 16.1598 73.4127 16.1334C73.4216 16.0185 73.3771 15.9067 73.2941 15.8286C73.2852 15.8213 73.2778 15.8139 73.2689 15.8066C73.2615 15.8021 73.2555 15.7963 73.2481 15.7918C73.2407 15.7874 73.2333 15.783 73.2259 15.7786C73.2155 15.7712 73.2037 15.7653 73.1918 15.7609C73.1888 15.7595 73.1844 15.758 73.1814 15.7565C73.177 15.7536 73.171 15.7521 73.1651 15.7492C73.1636 15.7492 73.1607 15.7477 73.1592 15.7462C73.1443 15.7418 73.128 15.7374 73.1132 15.7344C73.1132 15.7344 73.1117 15.7344 73.1102 15.733C73.0302 15.7168 72.9442 15.7256 72.8671 15.7624C72.7381 15.8242 72.6046 15.8757 72.4682 15.917C72.4475 15.9229 72.4252 15.9287 72.4045 15.9346C72.3288 15.7506 72.2977 15.5563 72.3081 15.3502C72.3377 14.7423 72.7277 14.1329 73.0494 13.7295C73.4157 13.2688 73.7834 12.9597 73.7864 12.9582C73.8649 12.8934 73.9124 12.8007 73.9213 12.7006C74.0577 11.2109 73.8738 9.7698 73.3786 8.41554C72.9768 7.3233 72.3733 6.287 71.583 5.33607C70.2871 3.7772 68.8148 2.86749 68.4931 2.73648C68.4931 2.73648 68.4931 2.73648 68.4916 2.73648C64.6795 1.15258 60.6436 0.279675 56.4964 0.141306C52.2929 -8.45641e-06 48.0968 0.619713 44.0253 1.98428C38.7186 3.75954 34.0525 6.62851 30.5311 10.2791C28.6629 12.2163 27.1327 14.3581 25.9851 16.6456C24.7707 19.0656 23.979 21.6564 23.632 24.3502C23.5979 24.6225 23.5668 24.9037 23.5401 25.1819C23.4644 25.9709 23.5015 26.7805 23.6498 27.5916C23.6661 27.6784 23.6839 27.7653 23.7017 27.8506ZM83.4092 37.5056C82.6693 39.0836 81.7471 40.6087 80.6676 42.038C79.5971 43.457 78.3635 44.7936 77.0009 46.0125C75.6368 47.2328 74.1303 48.3456 72.5261 49.3186C70.9054 50.3004 69.1707 51.1513 67.3677 51.8446C63.6149 53.2872 59.6146 54.0512 55.4793 54.1174C51.344 54.1822 47.3214 53.5448 43.5241 52.2214C41.6989 51.587 39.9374 50.7921 38.2857 49.8618C36.6517 48.9388 35.1112 47.876 33.7085 46.6999C32.3059 45.5237 31.0293 44.2269 29.9143 42.8432C28.7889 41.4477 27.8192 39.9521 27.0289 38.3992C25.7197 35.8246 24.9071 33.1146 24.6032 30.3163C25.3193 31.6602 26.3261 32.7643 27.5345 33.5253C28.2699 33.989 29.0943 34.3172 29.892 34.6337C31.1775 35.1445 32.3904 35.6259 33.1822 36.618C33.7471 37.3275 34.0184 38.2093 34.3076 39.1425C34.4262 39.5282 34.5492 39.9271 34.6945 40.3113C35.2016 41.6538 36.032 42.9065 37.098 43.934C38.1641 44.9629 39.4496 45.7519 40.8137 46.2171C42.1111 46.6587 43.3343 46.7735 44.4493 46.56C46.0284 46.2568 47.3644 45.3015 48.6558 44.3785C50.1355 43.3216 51.5338 42.3221 53.2018 42.3103C53.2122 42.3103 53.2211 42.3103 53.2315 42.3103C55.0063 42.3103 56.4801 43.4246 58.0384 44.6052C59.5122 45.721 61.0365 46.8751 62.8943 47.0767C63.0782 47.0973 63.2635 47.1076 63.4489 47.1076C64.5476 47.1076 65.6685 46.7573 66.7227 46.0816C67.7962 45.3927 68.7866 44.3653 69.5117 43.1876C69.9179 42.5282 70.2619 41.829 70.5941 41.1533C70.9944 40.3378 71.4081 39.4943 71.9241 38.7451C72.6091 37.7529 73.5254 36.8771 74.5752 36.2117C75.6234 35.5464 76.8096 35.0886 78.0047 34.8884C78.5058 34.8045 79.0337 34.7588 79.5437 34.7147C80.7106 34.6131 81.9176 34.5071 83 33.9522C83.811 33.5371 84.5449 32.8997 85.1232 32.1107C85.1558 32.065 85.1884 32.0194 85.2211 31.9738C84.8534 33.8639 84.2499 35.7127 83.4092 37.5056ZM68.3329 3.62117C68.3566 3.59614 68.3789 3.57259 68.4026 3.54756C68.5746 3.65061 68.8474 3.82725 69.1899 4.0878C69.6555 4.44403 70.3509 5.03872 71.0226 5.85422C71.7506 6.73596 72.3036 7.69278 72.6699 8.70111C73.1043 9.89639 73.2733 11.1682 73.174 12.4842C72.784 12.839 71.6097 14.0122 71.5445 15.3105C71.5326 15.5666 71.5623 15.811 71.6335 16.0436C71.5979 16.0436 71.5623 16.0436 71.5267 16.0436C71.5178 16.0436 71.5074 16.0436 71.4985 16.0436C70.9796 16.0715 70.4858 15.9729 70.0306 15.7521C70.0114 15.7418 69.9921 15.7344 69.9713 15.7285C69.8453 15.6917 69.7237 15.6476 69.6051 15.5961C69.4064 15.5077 69.2181 15.3988 69.0417 15.2678C68.9824 15.2251 68.926 15.1795 68.8697 15.1309C68.8193 15.0882 68.7703 15.0441 68.7229 14.9969C68.6992 14.9749 68.6754 14.9498 68.6532 14.9263C68.6502 14.9233 68.6473 14.9204 68.6443 14.9175C68.4827 14.7614 68.3374 14.5966 68.2069 14.4229C67.9207 14.0387 67.7072 13.6088 67.5708 13.1407L67.5604 13.0686L67.4166 12.0823C67.4122 11.5009 67.5293 10.943 67.7621 10.419C67.7695 10.4028 67.7769 10.3866 67.7843 10.3704C67.7858 10.366 67.7873 10.3616 67.7888 10.3586C67.8229 10.285 67.8599 10.2129 67.897 10.1407L68.2899 9.61377L68.5731 9.23251C68.5805 9.22515 68.5865 9.21779 68.5939 9.21043C68.5954 9.20896 68.5954 9.20896 68.5954 9.20749C68.5969 9.20749 68.5968 9.20749 68.5968 9.20602C68.6206 9.18246 68.6458 9.15597 68.6725 9.12947C68.711 9.0912 68.7392 9.04557 68.7585 8.99699C68.7718 8.96019 68.7807 8.92192 68.7822 8.88217C68.7837 8.86892 68.7837 8.85567 68.7822 8.84095C68.7807 8.81446 68.7763 8.78796 68.7703 8.76294C68.7496 8.68639 68.7036 8.61868 68.6413 8.56716C68.5568 8.49945 68.4738 8.42437 68.3967 8.34341C68.3952 8.34194 68.3922 8.34047 68.3908 8.33752C68.3893 8.33605 68.3893 8.33605 68.3878 8.33458C67.9637 7.92388 67.6642 7.43076 67.4996 6.86697L67.4566 6.5711L67.3706 5.98229C67.3677 5.5186 67.4566 5.07405 67.636 4.65452C67.6479 4.62656 67.6613 4.59859 67.6731 4.57062C67.7028 4.50732 67.7339 4.44403 67.768 4.3822L68.3329 3.62117ZM24.2992 25.2525C24.3259 24.9831 24.3556 24.7108 24.3897 24.4459C24.7262 21.8374 25.4928 19.3262 26.6686 16.9842C27.7821 14.7658 29.2663 12.6859 31.0826 10.8046C34.5181 7.24087 39.0789 4.43961 44.2699 2.70115C48.254 1.3675 52.3596 0.761027 56.4712 0.897925C60.3381 1.02746 64.1057 1.80911 67.679 3.22519L67.1364 3.95384C67.126 3.96709 67.1171 3.98328 67.1082 3.998C66.8947 4.38956 66.7494 4.80173 66.6723 5.23008C66.6649 5.27277 66.6575 5.31546 66.65 5.35815C66.6189 5.57307 66.6041 5.7924 66.607 6.01614C66.607 6.03234 66.6085 6.04853 66.6115 6.06472L66.7479 7.00093C66.7494 7.01712 66.7538 7.03331 66.7583 7.0495C66.9451 7.70603 67.2802 8.286 67.7532 8.77619C67.7843 8.80857 67.8169 8.84095 67.8496 8.87334C67.8585 8.8807 67.8659 8.88953 67.8733 8.89689L67.2669 9.71239C67.2565 9.72711 67.2476 9.74183 67.2387 9.75802C67.1393 9.94055 67.0519 10.1275 66.9777 10.3174C66.7538 10.8885 66.6456 11.4921 66.653 12.1162C66.653 12.1324 66.6545 12.1486 66.6575 12.1648L66.8191 13.2747C66.8206 13.2909 66.825 13.3071 66.8295 13.3233C66.8576 13.4263 66.8902 13.5264 66.9258 13.625C67.1734 14.3198 67.5693 14.9337 68.1061 15.4547C68.5627 15.9273 69.1069 16.2614 69.7252 16.4469C70.2857 16.7133 70.8906 16.8326 71.5252 16.8016C71.9063 16.8075 72.2755 16.7604 72.6298 16.6589C72.6298 16.678 72.6298 16.6957 72.6313 16.7133C72.6313 16.7295 72.6328 16.7472 72.6343 16.7634L72.8715 18.387C72.873 18.4032 72.8775 18.4194 72.8819 18.4356C73.0895 19.1672 73.4083 19.8428 73.8308 20.4523C73.9168 20.5744 74.0058 20.6951 74.0977 20.8114C74.1452 20.8703 74.1926 20.9277 74.2416 20.9851C74.3869 21.1574 74.5425 21.3222 74.7071 21.4812C75.358 22.1554 76.1335 22.6294 77.0142 22.8929C77.8149 23.2741 78.6793 23.4464 79.5838 23.4007C80.1769 23.411 80.7522 23.3301 81.2993 23.1564C81.4787 23.6186 81.753 24.0293 82.1148 24.3796C82.4469 24.7226 82.8413 24.964 83.2876 25.1009C83.6954 25.2923 84.1328 25.3791 84.5924 25.357C85.0506 25.3629 85.4865 25.2643 85.8868 25.0597C85.9268 25.045 85.9684 25.0303 86.0084 25.0155C86.2204 27.7358 85.7044 30.0263 84.5049 31.6647C83.9963 32.3594 83.3558 32.9173 82.65 33.2795C81.7011 33.7652 80.6202 33.8594 79.477 33.9595C78.9521 34.0052 78.408 34.0523 77.8772 34.1406C76.5828 34.357 75.2987 34.8531 74.163 35.5729C73.0287 36.2927 72.0368 37.2421 71.2954 38.3167C70.7468 39.1116 70.3198 39.9801 69.9076 40.8206C69.5829 41.4816 69.2478 42.1631 68.8608 42.7917C68.1936 43.8751 67.2876 44.8172 66.3075 45.4457C65.2252 46.139 64.0746 46.4438 62.9774 46.3245C61.3315 46.1449 59.9556 45.1042 58.501 44.0017C56.9101 42.7976 55.2643 41.5522 53.2315 41.5522C53.2196 41.5522 53.2077 41.5522 53.1959 41.5522C51.2847 41.5655 49.7219 42.6827 48.2095 43.7632C46.9848 44.6391 45.7185 45.5443 44.304 45.8152C43.3225 46.0036 42.2312 45.8976 41.0613 45.5002C39.8025 45.0718 38.6163 44.3417 37.6303 43.3908C36.6443 42.4399 35.8777 41.2828 35.4107 40.0463C35.2728 39.6828 35.1527 39.2941 35.037 38.9202C34.7405 37.9605 34.4351 36.9683 33.7812 36.1484C32.8634 34.9973 31.4978 34.4541 30.1752 33.9301C29.4101 33.6254 28.6199 33.3118 27.9437 32.885C26.7353 32.1239 25.7478 30.9816 25.0865 29.5803C24.443 28.2157 24.1628 26.6789 24.2992 25.2525Z" fill="white"/>
<mask id="mask2_167_2533" style="mask-type:luminance" maskUnits="userSpaceOnUse" x="23" y="-1" width="64" height="56">
<path d="M23.4587 -0.0632935H86.9398V54.7666H23.4587V-0.0632935Z" fill="white"/>
</mask>
<g mask="url(#mask2_167_2533)">
<path d="M23.6992 27.7874C23.6992 27.8963 23.7007 28.0053 23.7022 28.1142C23.7615 31.7913 24.6511 35.3462 26.3444 38.6774C27.1584 40.2775 28.1578 41.8173 29.3158 43.2539C30.4619 44.6759 31.7741 46.0081 33.2138 47.2152C34.6521 48.4207 36.2312 49.5115 37.9066 50.4565C39.5969 51.4104 41.4014 52.223 43.2681 52.8736C46.9705 54.1631 50.8804 54.8167 54.8986 54.8167C55.0943 54.8167 55.2915 54.8152 55.4887 54.8108C59.7144 54.7445 63.8038 53.9629 67.641 52.4879C69.4855 51.7784 71.2633 50.9085 72.9225 49.9016C74.5668 48.9036 76.1103 47.7642 77.5085 46.513C78.9097 45.2603 80.1774 43.8869 81.2761 42.4296C82.3881 40.9576 83.3371 39.3869 84.0992 37.7618C85.3165 35.1652 86.0549 32.4537 86.3055 29.6701C86.7948 28.1274 86.9356 26.3169 86.7117 24.3105C86.6969 24.178 86.6124 24.0617 86.4893 24.0073C86.3677 23.9513 86.2254 23.9646 86.1142 24.0411C85.9882 24.128 85.8488 24.2001 85.702 24.2546C85.6916 24.259 85.6798 24.2634 85.6679 24.2678C85.6501 24.2737 85.6338 24.2796 85.616 24.2855C85.616 24.2855 85.616 24.2855 85.6145 24.2869C85.6101 24.2884 85.6056 24.2899 85.5997 24.2914C85.5849 24.2972 85.57 24.3031 85.5552 24.312C85.3298 24.4297 85.097 24.5004 84.8465 24.5254C84.7634 24.5342 84.6789 24.5372 84.5914 24.5357C84.5825 24.5357 84.5722 24.5357 84.5633 24.5357C84.2148 24.5534 83.8975 24.4901 83.5921 24.3429C83.5728 24.3326 83.5521 24.3252 83.5313 24.3193C83.1947 24.2207 82.9086 24.047 82.6595 23.7879C82.658 23.7865 82.6565 23.785 82.655 23.7835C82.6535 23.782 82.652 23.7806 82.6506 23.7791C82.5898 23.7202 82.5334 23.6613 82.4815 23.601C82.3599 23.4611 82.2547 23.3139 82.1672 23.1579C82.1672 23.1564 82.1657 23.1564 82.1657 23.1564C82.142 23.1123 82.1183 23.0681 82.096 23.0225C82.0931 23.0166 82.0916 23.0107 82.0886 23.0048C82.0263 22.8738 81.973 22.7369 81.93 22.5912L81.924 22.5455C81.9196 22.5176 81.9122 22.4896 81.9018 22.4631C81.8707 22.3821 81.8113 22.3144 81.7357 22.2717C81.6334 22.2129 81.5104 22.2055 81.4006 22.2497C80.8328 22.4822 80.2204 22.5926 79.5828 22.5794C79.5739 22.5794 79.5635 22.5794 79.5546 22.5794C78.7658 22.6206 78.0126 22.4719 77.3187 22.1348C77.2994 22.1245 77.2787 22.1172 77.2594 22.1113C76.6367 21.9288 76.0732 21.6241 75.581 21.2016C75.4668 21.103 75.3571 20.9999 75.2518 20.8895C75.2488 20.8866 75.2444 20.8836 75.2414 20.8807C74.4645 20.1285 73.9188 19.2232 73.6208 18.1898L73.5823 17.9278L73.391 16.6162C73.3895 16.4602 73.3954 16.3027 73.4043 16.1481C73.4058 16.1216 73.4088 16.0966 73.4103 16.0701C73.4192 15.9553 73.3747 15.8434 73.2917 15.7654C73.2828 15.758 73.2753 15.7507 73.2664 15.7433C73.259 15.7389 73.2531 15.733 73.2457 15.7286C73.2383 15.7242 73.2309 15.7198 73.2234 15.7154C73.2131 15.708 73.2012 15.7021 73.1894 15.6977C73.1864 15.6962 73.1819 15.6948 73.179 15.6933C73.1745 15.6903 73.1686 15.6889 73.1627 15.6859C73.1612 15.6859 73.1582 15.6844 73.1567 15.683C73.1419 15.6786 73.1256 15.6741 73.1108 15.6712C73.1108 15.6712 73.1093 15.6712 73.1078 15.6697C73.0277 15.6535 72.9417 15.6624 72.8646 15.6992C72.7356 15.761 72.6022 15.8125 72.4658 15.8537C72.445 15.8596 72.4228 15.8655 72.402 15.8714C72.3264 15.6874 72.2953 15.4931 72.3056 15.287C72.3353 14.6791 72.7253 14.0696 73.047 13.6663C73.4132 13.2056 73.781 12.8964 73.7839 12.895C73.8625 12.8302 73.91 12.7375 73.9188 12.6374C74.0553 11.1477 73.8714 9.70657 73.3762 8.35231C72.9744 7.26007 72.3709 6.22376 71.5806 5.27284C70.2847 3.71397 68.8124 2.80426 68.4906 2.67325C68.4906 2.67325 68.4906 2.67325 68.4891 2.67325C64.6771 1.08935 60.6411 0.216443 56.494 0.0780732C52.2905 -0.0632409 48.0944 0.55648 44.0228 1.92104C38.7162 3.6963 34.0501 6.56527 30.5286 10.2159C28.6604 12.1531 27.1302 14.2949 25.9826 16.5824C24.7683 19.0024 23.9765 21.5931 23.6296 24.2869C23.5955 24.5593 23.5643 24.8404 23.5376 25.1186C23.462 25.9076 23.4991 26.7173 23.6473 27.5283C23.6637 27.6152 23.6814 27.702 23.6992 27.7874ZM83.4067 37.4424C82.6669 39.0204 81.7446 40.5454 80.6652 41.9748C79.5947 43.3938 78.3611 44.7304 76.9984 45.9492C75.6343 47.1695 74.1279 48.2824 72.5236 49.2554C70.903 50.2372 69.1682 51.088 67.3652 51.7814C63.6125 53.2239 59.6121 53.9879 55.4768 54.0542C51.3415 54.1189 47.3189 53.4816 43.5217 52.1582C41.6965 51.5238 39.935 50.7289 38.2832 49.7986C36.6493 48.8756 35.1087 47.8128 33.7061 46.6367C32.3034 45.4605 31.0268 44.1637 29.9118 42.78C28.7864 41.3845 27.8167 39.8889 27.0265 38.3359C25.7172 35.7614 24.9047 33.0514 24.6007 30.253C25.3169 31.597 26.3237 32.701 27.5321 33.4621C28.2675 33.9257 29.0919 34.254 29.8896 34.5705C31.1751 35.0813 32.388 35.5626 33.1797 36.5548C33.7446 37.2643 34.016 38.146 34.3051 39.0793C34.4237 39.465 34.5468 39.8639 34.6921 40.2481C35.1992 41.5906 36.0295 42.8433 37.0956 43.8707C38.1617 44.8997 39.4472 45.6887 40.8113 46.1538C42.1086 46.5954 43.3319 46.7103 44.4469 46.4968C46.026 46.1936 47.3619 45.2382 48.6534 44.3153C50.1331 43.2584 51.5313 42.2589 53.1994 42.2471C53.2097 42.2471 53.2186 42.2471 53.229 42.2471C55.0038 42.2471 56.4776 43.3614 58.036 44.542C59.5098 45.6578 61.034 46.8118 62.8919 47.0135C63.0757 47.0341 63.2611 47.0444 63.4464 47.0444C64.5451 47.0444 65.666 46.6941 66.7203 46.0184C67.7937 45.3295 68.7842 44.302 69.5092 43.1244C69.9155 42.4649 70.2595 41.7657 70.5916 41.0901C70.992 40.2746 71.4056 39.4311 71.9216 38.6818C72.6066 37.6897 73.523 36.8139 74.5727 36.1485C75.621 35.4831 76.8072 35.0253 78.0022 34.8251C78.5034 34.7412 79.0312 34.6956 79.5413 34.6515C80.7082 34.5499 81.9151 34.4439 82.9975 33.8889C83.8086 33.4738 84.5425 32.8364 85.1208 32.0474C85.1534 32.0018 85.186 31.9562 85.2186 31.9105C84.8509 33.8006 84.2474 35.6495 83.4067 37.4424ZM68.3305 3.55793C68.3542 3.53291 68.3764 3.50936 68.4002 3.48433C68.5722 3.58737 68.845 3.76402 69.1875 4.02456C69.6531 4.38079 70.3485 4.97549 71.0201 5.79099C71.7481 6.67273 72.3012 7.62955 72.6674 8.63788C73.1019 9.83316 73.2709 11.105 73.1716 12.421C72.7816 12.7757 71.6073 13.9489 71.542 15.2473C71.5302 15.5034 71.5598 15.7477 71.631 15.9803C71.5954 15.9803 71.5598 15.9803 71.5243 15.9803C71.5154 15.9803 71.505 15.9803 71.4961 15.9803C70.9771 16.0083 70.4834 15.9097 70.0282 15.6889C70.0089 15.6786 69.9896 15.6712 69.9689 15.6653C69.8429 15.6285 69.7213 15.5844 69.6027 15.5328C69.404 15.4445 69.2157 15.3356 69.0392 15.2046C68.9799 15.1619 68.9236 15.1162 68.8672 15.0677C68.8168 15.025 68.7679 14.9808 68.7204 14.9337C68.6967 14.9116 68.673 14.8866 68.6507 14.8631C68.6478 14.8601 68.6448 14.8572 68.6419 14.8542C68.4802 14.6982 68.3349 14.5333 68.2045 14.3596C67.9183 13.9754 67.7048 13.5456 67.5684 13.0775L67.558 13.0054L67.4142 12.0191C67.4097 11.4377 67.5269 10.8798 67.7596 10.3557C67.7671 10.3395 67.7745 10.3233 67.7819 10.3072C67.7834 10.3027 67.7848 10.2983 67.7863 10.2954C67.8204 10.2218 67.8575 10.1496 67.8946 10.0775L68.2875 9.55053L68.5707 9.16928C68.5781 9.16192 68.584 9.15456 68.5914 9.1472C68.5929 9.14573 68.5929 9.14573 68.5929 9.14426C68.5944 9.14426 68.5944 9.14426 68.5944 9.14278C68.6181 9.11923 68.6433 9.09274 68.67 9.06624C68.7086 9.02797 68.7367 8.98233 68.756 8.93376C68.7694 8.89696 68.7783 8.85868 68.7797 8.81894C68.7812 8.80569 68.7812 8.79244 68.7797 8.77772C68.7783 8.75123 68.7738 8.72473 68.7679 8.69971C68.7471 8.62316 68.7012 8.55545 68.6389 8.50393C68.5544 8.43621 68.4713 8.36114 68.3942 8.28018C68.3928 8.27871 68.3898 8.27724 68.3883 8.27429C68.3868 8.27282 68.3868 8.27282 68.3853 8.27135C67.9613 7.86065 67.6618 7.36753 67.4972 6.80374L67.4542 6.50786L67.3682 5.91906C67.3652 5.45537 67.4542 5.01082 67.6336 4.59129C67.6455 4.56332 67.6588 4.53536 67.6707 4.50739C67.7003 4.44409 67.7315 4.38079 67.7656 4.31897L68.3305 3.55793ZM24.2968 25.1893C24.3235 24.9199 24.3531 24.6476 24.3872 24.3826C24.7238 21.7742 25.4904 19.2629 26.6662 16.9209C27.7797 14.7026 29.2639 12.6226 31.0802 10.7414C34.5157 7.17763 39.0765 4.37638 44.2675 2.63792C48.2515 1.30427 52.3572 0.697794 56.4688 0.834692C60.3357 0.96423 64.1033 1.74587 67.6766 3.16196L67.1339 3.89061C67.1236 3.90386 67.1147 3.92005 67.1058 3.93477C66.8923 4.32633 66.7469 4.73849 66.6698 5.16685C66.6624 5.20954 66.655 5.25223 66.6476 5.29492C66.6165 5.50983 66.6016 5.72916 66.6046 5.95291C66.6046 5.9691 66.6061 5.9853 66.6091 6.00149L66.7455 6.9377C66.7469 6.95389 66.7514 6.97008 66.7558 6.98627C66.9427 7.64279 67.2778 8.22277 67.7507 8.71295C67.7819 8.74534 67.8145 8.77772 67.8471 8.81011C67.856 8.81747 67.8634 8.8263 67.8708 8.83366L67.2644 9.64916C67.254 9.66388 67.2451 9.6786 67.2362 9.69479C67.1369 9.87732 67.0494 10.0643 66.9753 10.2542C66.7514 10.8253 66.6432 11.4288 66.6506 12.053C66.6506 12.0692 66.6521 12.0854 66.655 12.1015L66.8166 13.2115C66.8181 13.2276 66.8226 13.2438 66.827 13.26C66.8552 13.3631 66.8878 13.4632 66.9234 13.5618C67.171 14.2566 67.5669 14.8704 68.1036 15.3915C68.5603 15.864 69.1045 16.1982 69.7228 16.3837C70.2832 16.6501 70.8882 16.7693 71.5228 16.7384C71.9038 16.7443 72.273 16.6972 72.6274 16.5956C72.6274 16.6148 72.6274 16.6324 72.6289 16.6501C72.6289 16.6663 72.6304 16.684 72.6318 16.7001L72.8691 18.3238C72.8706 18.34 72.875 18.3562 72.8795 18.3724C73.087 19.104 73.4058 19.7796 73.8284 20.389C73.9144 20.5112 74.0034 20.6319 74.0953 20.7482C74.1427 20.8071 74.1902 20.8645 74.2391 20.9219C74.3844 21.0941 74.5401 21.259 74.7047 21.418C75.3556 22.0922 76.1311 22.5662 77.0118 22.8296C77.8125 23.2109 78.6769 23.3831 79.5813 23.3375C80.1744 23.3478 80.7497 23.2668 81.2968 23.0931C81.4762 23.5553 81.7506 23.966 82.1123 24.3164C82.4445 24.6594 82.8389 24.9008 83.2852 25.0377C83.6929 25.229 84.1303 25.3159 84.59 25.2938C85.0481 25.2997 85.484 25.2011 85.8844 24.9965C85.9244 24.9817 85.9659 24.967 86.0059 24.9523C86.218 27.6726 85.702 29.9631 84.5025 31.6014C83.9939 32.2962 83.3534 32.8541 82.6476 33.2162C81.6987 33.702 80.6178 33.7962 79.4746 33.8963C78.9497 33.9419 78.4055 33.989 77.8747 34.0774C76.5803 34.2938 75.2963 34.7898 74.1605 35.5096C73.0262 36.2295 72.0343 37.1789 71.2929 38.2535C70.7443 39.0484 70.3173 39.9169 69.9051 40.7574C69.5804 41.4183 69.2453 42.0999 68.8583 42.7284C68.1911 43.8118 67.2852 44.7539 66.3051 45.3825C65.2227 46.0758 64.0721 46.3805 62.9749 46.2613C61.3291 46.0817 59.9531 45.041 58.4986 43.9384C56.9076 42.7343 55.2618 41.489 53.229 41.489C53.2172 41.489 53.2053 41.489 53.1934 41.489C51.2822 41.5022 49.7194 42.6195 48.2071 43.7C46.9823 44.5758 45.7161 45.4811 44.3016 45.752C43.32 45.9404 42.2287 45.8344 41.0589 45.437C39.8001 45.0086 38.6139 44.2785 37.6279 43.3275C36.6419 42.3766 35.8753 41.2196 35.4083 39.9831C35.2704 39.6195 35.1503 39.2309 35.0346 38.857C34.7381 37.8973 34.4326 36.9051 33.7787 36.0852C32.8609 34.9341 31.4954 34.3909 30.1728 33.8669C29.4077 33.5622 28.6174 33.2486 27.9413 32.8217C26.7329 32.0607 25.7454 30.9184 25.0841 29.517C24.4406 28.1525 24.1604 26.6157 24.2968 25.1893Z" fill="white"/>
<mask id="mask3_167_2533" style="mask-type:luminance" maskUnits="userSpaceOnUse" x="23" y="-1" width="65" height="56">
<path d="M23.7434 -0.345917H87.2244V54.4839H23.7434V-0.345917Z" fill="white"/>
</mask>
<g mask="url(#mask3_167_2533)">
<path d="M23.9839 27.5048C23.9839 27.6137 23.9854 27.7226 23.9869 27.8315C24.0462 31.5087 24.9358 35.0636 26.6291 38.3948C27.4431 39.9949 28.4424 41.5346 29.6004 42.9713C30.7466 44.3933 32.0588 45.7254 33.4985 46.9325C34.9367 48.1381 36.5158 49.2289 38.1913 50.1739C39.8816 51.1278 41.6861 51.9403 43.5528 52.591C47.2551 53.8804 51.1651 54.534 55.1832 54.534C55.3789 54.534 55.5761 54.5326 55.7733 54.5281C59.9991 54.4619 64.0884 53.6803 67.9257 52.2053C69.7702 51.4958 71.548 50.6258 73.2071 49.6189C74.8515 48.6209 76.395 47.4816 77.7932 46.2303C79.1943 44.9777 80.4621 43.6043 81.5608 42.147C82.6728 40.6749 83.6217 39.1043 84.3838 37.4792C85.6012 34.8825 86.3395 32.1711 86.5901 29.3875C87.0794 27.8448 87.2203 26.0342 86.9964 24.0278C86.9816 23.8954 86.897 23.7791 86.774 23.7246C86.6524 23.6687 86.5101 23.6819 86.3989 23.7585C86.2728 23.8453 86.1334 23.9174 85.9867 23.9719C85.9763 23.9763 85.9644 23.9807 85.9526 23.9852C85.9348 23.991 85.9185 23.9969 85.9007 24.0028C85.9007 24.0028 85.9007 24.0028 85.8992 24.0043C85.8947 24.0058 85.8903 24.0072 85.8844 24.0087C85.8695 24.0146 85.8547 24.0205 85.8399 24.0293C85.6145 24.1471 85.3817 24.2177 85.1311 24.2428C85.0481 24.2516 84.9636 24.2545 84.8761 24.2531C84.8672 24.2531 84.8568 24.2531 84.8479 24.2531C84.4995 24.2707 84.1822 24.2074 83.8768 24.0602C83.8575 24.0499 83.8367 24.0426 83.816 24.0367C83.4794 23.938 83.1932 23.7643 82.9441 23.5053C82.9426 23.5038 82.9412 23.5023 82.9397 23.5009C82.9382 23.4994 82.9367 23.4979 82.9352 23.4964C82.8744 23.4376 82.8181 23.3787 82.7662 23.3183C82.6446 23.1785 82.5393 23.0313 82.4519 22.8752C82.4519 22.8738 82.4504 22.8738 82.4504 22.8738C82.4267 22.8296 82.4029 22.7855 82.3807 22.7398C82.3777 22.7339 82.3762 22.728 82.3733 22.7222C82.311 22.5911 82.2576 22.4543 82.2146 22.3085L82.2087 22.2629C82.2043 22.2349 82.1968 22.207 82.1865 22.1805C82.1553 22.0995 82.096 22.0318 82.0204 21.9891C81.9181 21.9302 81.795 21.9229 81.6853 21.967C81.1174 22.1996 80.5051 22.31 79.8675 22.2967C79.8586 22.2967 79.8482 22.2967 79.8393 22.2967C79.0505 22.338 78.2973 22.1893 77.6034 21.8522C77.5841 21.8419 77.5633 21.8345 77.5441 21.8286C76.9213 21.6461 76.3579 21.3414 75.8656 20.9189C75.7515 20.8203 75.6417 20.7173 75.5365 20.6069C75.5335 20.6039 75.5291 20.601 75.5261 20.598C74.7492 19.8458 74.2035 18.9405 73.9055 17.9072L73.8669 17.6452L73.6757 16.3336C73.6742 16.1775 73.6801 16.02 73.689 15.8655C73.6905 15.839 73.6935 15.814 73.6949 15.7875C73.7038 15.6726 73.6594 15.5608 73.5763 15.4828C73.5674 15.4754 73.56 15.468 73.5511 15.4607C73.5437 15.4563 73.5378 15.4504 73.5304 15.446C73.5229 15.4415 73.5155 15.4371 73.5081 15.4327C73.4977 15.4253 73.4859 15.4195 73.474 15.415C73.4711 15.4136 73.4666 15.4121 73.4636 15.4106C73.4592 15.4077 73.4533 15.4062 73.4473 15.4033C73.4458 15.4033 73.4429 15.4018 73.4414 15.4003C73.4266 15.3959 73.4103 15.3915 73.3954 15.3885C73.3954 15.3885 73.394 15.3885 73.3925 15.3871C73.3124 15.3709 73.2264 15.3797 73.1493 15.4165C73.0203 15.4783 72.8869 15.5299 72.7505 15.5711C72.7297 15.577 72.7075 15.5829 72.6867 15.5887C72.6111 15.4047 72.5799 15.2104 72.5903 15.0043C72.62 14.3964 73.0099 13.787 73.3317 13.3837C73.6979 12.9229 74.0656 12.6138 74.0686 12.6123C74.1472 12.5475 74.1946 12.4548 74.2035 12.3547C74.3399 10.865 74.1561 9.42391 73.6608 8.06965C73.259 6.97741 72.6556 5.94111 71.8653 4.99018C70.5694 3.43131 69.097 2.5216 68.7753 2.39059C68.7753 2.39059 68.7753 2.39059 68.7738 2.39059C64.9617 0.806698 60.9258 -0.0662107 56.7786 -0.204581C52.5751 -0.345895 48.379 0.273826 44.3075 1.63839C39.0009 3.41365 34.3348 6.28262 30.8133 9.93323C28.9451 11.8704 27.4149 14.0122 26.2673 16.2997C25.0529 18.7197 24.2612 21.3105 23.9142 24.0043C23.8801 24.2766 23.849 24.5578 23.8223 24.836C23.7467 25.625 23.7837 26.4346 23.932 27.2457C23.9483 27.3325 23.9661 27.4194 23.9839 27.5048ZM83.6914 37.1597C82.9515 38.7378 82.0293 40.2628 80.9499 41.6921C79.8794 43.1111 78.6457 44.4477 77.2831 45.6666C75.919 46.8869 74.4126 47.9997 72.8083 48.9727C71.1877 49.9546 69.4529 50.8054 67.6499 51.4987C63.8971 52.9413 59.8968 53.7053 55.7615 53.7715C51.6262 53.8363 47.6036 53.1989 43.8063 51.8756C41.9811 51.2411 40.2197 50.4462 38.5679 49.5159C36.934 48.5929 35.3934 47.5301 33.9908 46.354C32.5881 45.1779 31.3115 43.881 30.1965 42.4973C29.0711 41.1018 28.1014 39.6063 27.3111 38.0533C26.0019 35.4787 25.1894 32.7687 24.8854 29.9704C25.6016 31.3144 26.6083 32.4184 27.8167 33.1794C28.5522 33.6431 29.3765 33.9714 30.1743 34.2878C31.4598 34.7986 32.6726 35.28 33.4644 36.2721C34.0293 36.9816 34.3006 37.8634 34.5898 38.7966C34.7084 39.1823 34.8315 39.5812 34.9768 39.9654C35.4839 41.3079 36.3142 42.5606 37.3803 43.5881C38.4463 44.617 39.7318 45.406 41.0959 45.8712C42.3933 46.3128 43.6166 46.4276 44.7316 46.2142C46.3107 45.9109 47.6466 44.9556 48.938 44.0326C50.4178 42.9757 51.816 41.9762 53.484 41.9644C53.4944 41.9644 53.5033 41.9644 53.5137 41.9644C55.2885 41.9644 56.7623 43.0788 58.3207 44.2593C59.7945 45.3751 61.3187 46.5292 63.1765 46.7308C63.3604 46.7514 63.5457 46.7617 63.7311 46.7617C64.8298 46.7617 65.9507 46.4114 67.0049 45.7357C68.0784 45.0468 69.0689 44.0194 69.7939 42.8418C70.2002 42.1823 70.5442 41.4831 70.8763 40.8074C71.2766 39.9919 71.6903 39.1485 72.2063 38.3992C72.8913 37.4071 73.8076 36.5312 74.8574 35.8658C75.9057 35.2005 77.0918 34.7427 78.2869 34.5425C78.7881 34.4586 79.3159 34.413 79.826 34.3688C80.9929 34.2672 82.1998 34.1612 83.2822 33.6063C84.0932 33.1912 84.8272 32.5538 85.4054 31.7648C85.4381 31.7192 85.4707 31.6735 85.5033 31.6279C85.1356 33.518 84.5321 35.3668 83.6914 37.1597ZM68.6152 3.27528C68.6389 3.25025 68.6611 3.2267 68.6848 3.20168C68.8568 3.30472 69.1297 3.48136 69.4722 3.74191C69.9377 4.09814 70.6331 4.69284 71.3048 5.50834C72.0328 6.39008 72.5859 7.34689 72.9521 8.35523C73.3865 9.55051 73.5556 10.8223 73.4562 12.1383C73.0663 12.4931 71.892 13.6663 71.8267 14.9646C71.8149 15.2207 71.8445 15.4651 71.9157 15.6977C71.8801 15.6977 71.8445 15.6977 71.8089 15.6977C71.8 15.6977 71.7896 15.6977 71.7808 15.6977C71.2618 15.7256 70.7681 15.627 70.3129 15.4062C70.2936 15.3959 70.2743 15.3885 70.2536 15.3827C70.1275 15.3459 70.0059 15.3017 69.8873 15.2502C69.6886 15.1619 69.5003 15.0529 69.3239 14.9219C69.2646 14.8792 69.2082 14.8336 69.1519 14.785C69.1015 14.7423 69.0526 14.6982 69.0051 14.6511C68.9814 14.629 68.9577 14.604 68.9354 14.5804C68.9325 14.5775 68.9295 14.5745 68.9265 14.5716C68.7649 14.4155 68.6196 14.2507 68.4891 14.077C68.203 13.6928 67.9894 13.2629 67.853 12.7948L67.8427 12.7227L67.6988 11.7365C67.6944 11.155 67.8115 10.5971 68.0443 10.0731C68.0517 10.0569 68.0591 10.0407 68.0665 10.0245C68.068 10.0201 68.0695 10.0157 68.071 10.0127C68.1051 9.93912 68.1422 9.86699 68.1792 9.79486L68.5722 9.26788L68.8554 8.88663C68.8628 8.87927 68.8687 8.87191 68.8761 8.86455C68.8776 8.86307 68.8776 8.86307 68.8776 8.8616C68.8791 8.8616 68.8791 8.8616 68.8791 8.86013C68.9028 8.83658 68.928 8.81008 68.9547 8.78358C68.9932 8.74531 69.0214 8.69968 69.0407 8.6511C69.054 8.6143 69.0629 8.57603 69.0644 8.53629C69.0659 8.52304 69.0659 8.50979 69.0644 8.49507C69.0629 8.46857 69.0585 8.44208 69.0526 8.41705C69.0318 8.34051 68.9858 8.27279 68.9236 8.22127C68.839 8.15356 68.756 8.07849 68.6789 7.99753C68.6774 7.99605 68.6745 7.99458 68.673 7.99164C68.6715 7.99016 68.6715 7.99016 68.67 7.98869C68.246 7.578 67.9464 7.08487 67.7819 6.52109L67.7389 6.22521L67.6529 5.6364C67.6499 5.17271 67.7389 4.72816 67.9183 4.30864C67.9301 4.28067 67.9435 4.2527 67.9553 4.22473C67.985 4.16144 68.0161 4.09814 68.0502 4.03631L68.6152 3.27528ZM24.5814 24.9066C24.6081 24.6373 24.6378 24.3649 24.6719 24.1C25.0085 21.4916 25.775 18.9803 26.9508 16.6383C28.0643 14.42 29.5485 12.34 31.3649 10.4587C34.8003 6.89498 39.3612 4.09372 44.5522 2.35527C48.5362 1.02161 52.6418 0.415141 56.7534 0.552039C60.6203 0.681576 64.3879 1.46322 67.9613 2.8793L67.4186 3.60796C67.4082 3.6212 67.3993 3.6374 67.3904 3.65212C67.1769 4.04367 67.0316 4.45584 66.9545 4.8842C66.9471 4.92689 66.9397 4.96958 66.9323 5.01226C66.9011 5.22718 66.8863 5.44651 66.8893 5.67026C66.8893 5.68645 66.8908 5.70264 66.8937 5.71883L67.0301 6.65504C67.0316 6.67123 67.0361 6.68743 67.0405 6.70362C67.2273 7.36014 67.5624 7.94012 68.0354 8.4303C68.0665 8.46268 68.0992 8.49507 68.1318 8.52745C68.1407 8.53481 68.1481 8.54364 68.1555 8.55101L67.5491 9.36651C67.5387 9.38123 67.5298 9.39595 67.5209 9.41214C67.4216 9.59467 67.3341 9.78162 67.2599 9.97151C67.0361 10.5427 66.9278 11.1462 66.9352 11.7703C66.9352 11.7865 66.9367 11.8027 66.9397 11.8189L67.1013 12.9288C67.1028 12.945 67.1072 12.9612 67.1117 12.9774C67.1399 13.0804 67.1725 13.1805 67.2081 13.2791C67.4557 13.9739 67.8516 14.5878 68.3883 15.1089C68.845 15.5814 69.3891 15.9155 70.0074 16.101C70.5679 16.3674 71.1728 16.4867 71.8074 16.4558C72.1885 16.4616 72.5577 16.4145 72.9121 16.313C72.9121 16.3321 72.9121 16.3498 72.9136 16.3674C72.9136 16.3836 72.915 16.4013 72.9165 16.4175L73.1538 18.0411C73.1552 18.0573 73.1597 18.0735 73.1641 18.0897C73.3717 18.8213 73.6905 19.497 74.1131 20.1064C74.1991 20.2286 74.288 20.3493 74.38 20.4655C74.4274 20.5244 74.4748 20.5818 74.5238 20.6392C74.6691 20.8115 74.8248 20.9763 74.9894 21.1353C75.6403 21.8095 76.4157 22.2835 77.2965 22.547C78.0971 22.9282 78.9615 23.1005 79.866 23.0548C80.4591 23.0651 81.0344 22.9842 81.5815 22.8105C81.7609 23.2727 82.0352 23.6834 82.397 24.0337C82.7291 24.3767 83.1235 24.6181 83.5698 24.755C83.9776 24.9464 84.415 25.0332 84.8746 25.0112C85.3328 25.017 85.7687 24.9184 86.169 24.7138C86.2091 24.6991 86.2506 24.6844 86.2906 24.6696C86.5026 27.3899 85.9867 29.6804 84.7871 31.3188C84.2786 32.0136 83.638 32.5715 82.9323 32.9336C81.9833 33.4193 80.9024 33.5136 79.7593 33.6136C79.2344 33.6593 78.6902 33.7064 78.1594 33.7947C76.865 34.0111 75.581 34.5072 74.4452 35.227C73.3109 35.9468 72.319 36.8963 71.5776 37.9708C71.029 38.7657 70.602 39.6342 70.1898 40.4747C69.8651 41.1357 69.53 41.8172 69.143 42.4458C68.4758 43.5292 67.5698 44.4713 66.5898 45.0998C65.5074 45.7932 64.3568 46.0979 63.2596 45.9786C61.6138 45.799 60.2378 44.7583 58.7833 43.6558C57.1923 42.4517 55.5465 41.2063 53.5137 41.2063C53.5018 41.2063 53.49 41.2063 53.4781 41.2063C51.5669 41.2196 50.0041 42.3368 48.4917 43.4173C47.267 44.2932 46.0008 45.1985 44.5863 45.4693C43.6047 45.6577 42.5134 45.5517 41.3436 45.1543C40.0847 44.7259 38.8986 43.9958 37.9125 43.0449C36.9265 42.094 36.16 40.937 35.6929 39.7005C35.555 39.3369 35.4349 38.9483 35.3193 38.5744C35.0227 37.6146 34.7173 36.6225 34.0634 35.8025C33.1456 34.6514 31.78 34.1082 30.4574 33.5842C29.6924 33.2795 28.9021 32.966 28.226 32.5391C27.0175 31.778 26.0301 30.6357 25.3688 29.2344C24.7253 27.8698 24.445 26.333 24.5814 24.9066Z" fill="white"/>
</g>
</g>
</g>
<path d="M47.9784 28.0714C49.1513 28.4748 50.3893 28.7324 51.3368 28.9105C52.3865 29.1092 53.4704 29.3138 54.5735 29.3389C54.6847 29.3418 54.796 29.3433 54.9072 29.3433C56.3854 29.3433 57.9823 29.1195 59.4398 28.7059C61.2991 28.1774 62.8515 27.359 63.928 26.3374C65.1246 25.2039 65.7488 23.835 65.7829 22.2687C65.8081 21.1647 65.4048 20.0151 64.6753 19.1171C63.9058 18.1677 62.8753 17.6024 61.7751 17.5259C60.7876 17.4567 59.8609 17.7585 58.9639 18.0499C58.5027 18.1986 58.0268 18.3532 57.5612 18.4488C56.4017 18.6873 55.1563 18.5828 54.0531 18.153C53.5564 17.9587 53.0908 17.7055 52.5971 17.4361C52.007 17.1152 51.3976 16.7825 50.7318 16.5632C48.9718 15.9847 46.9479 16.2967 45.4474 17.3772C43.9469 18.4577 43.0202 20.2727 43.0276 22.1127C43.0336 23.6804 43.5392 25.0023 44.5296 26.0386C45.3407 26.8865 46.469 27.5518 47.9784 28.0714ZM54.5913 28.5808C53.552 28.5572 52.4977 28.3585 51.4791 28.1657C50.8282 28.0435 50.0379 27.883 49.2328 27.6637C48.2053 26.9866 47.6374 26.1563 47.6241 25.2834C47.6077 24.2766 48.3313 23.2992 49.6613 22.5337C51.0595 21.7285 52.9381 21.2678 54.9502 21.2354C56.9622 21.203 58.8541 21.6049 60.279 22.3659C61.6328 23.0887 62.3875 24.0411 62.4038 25.0494C62.4156 25.8281 61.9871 26.5877 61.179 27.2456C59.4606 28.0597 57.1609 28.6411 54.5913 28.5808ZM45.8952 17.991C46.767 17.364 47.8405 17.0342 48.914 17.0342C49.4493 17.0342 49.9831 17.1152 50.4916 17.283C51.0906 17.4803 51.6437 17.782 52.2309 18.1C52.7231 18.3694 53.2332 18.6461 53.7744 18.8581C55.0124 19.3409 56.4136 19.4601 57.7169 19.1907C58.224 19.0862 58.7207 18.9258 59.2011 18.7697C60.0655 18.4886 60.884 18.2236 61.7217 18.2825C62.6069 18.3443 63.4461 18.8095 64.0807 19.5926C64.699 20.3536 65.0415 21.3237 65.0208 22.2525C64.9896 23.6097 64.4455 24.7991 63.4016 25.7898C63.2652 25.9194 63.114 26.0474 62.9509 26.1755C63.1006 25.806 63.1733 25.4248 63.1659 25.0376C63.1555 24.3708 62.9138 23.7334 62.4482 23.1416C62.0153 22.5941 61.4074 22.1083 60.6408 21.6976C59.1032 20.8777 57.0779 20.4434 54.9383 20.4773C52.7987 20.5111 50.7882 21.0087 49.2773 21.8787C48.5241 22.3114 47.9325 22.8163 47.5188 23.3786C47.071 23.9851 46.8501 24.6299 46.8605 25.2967C46.8708 25.9194 47.0829 26.517 47.4906 27.0749C46.4661 26.648 45.6743 26.1343 45.0842 25.516C44.2197 24.6122 43.7972 23.4979 43.7912 22.1098C43.7838 20.5082 44.5904 18.9302 45.8952 17.991Z" fill="white"/>
<path d="M81.5811 36.5709C81.4121 36.4458 81.1734 36.4782 81.0459 36.646C78.2495 40.3216 74.553 43.3054 70.3584 45.275C70.1687 45.3633 70.0871 45.59 70.1775 45.7784C70.2413 45.9153 70.3792 45.9963 70.5215 45.9963C70.5764 45.9963 70.6327 45.9845 70.6846 45.9595C74.9904 43.9384 78.7847 40.8751 81.6553 37.1023C81.7828 36.9345 81.7487 36.6975 81.5811 36.5709Z" fill="white"/>
<path d="M61.6622 48.1087C59.3373 48.6533 56.7766 48.8462 53.8334 48.699C51.5041 48.5827 49.0205 48.2618 46.018 47.6892C46.018 47.6892 46.0165 47.6877 46.0151 47.6877C45.8357 47.5788 45.6014 47.6332 45.4902 47.8128C45.3819 47.988 45.4353 48.2161 45.6073 48.328L45.6088 48.3295C45.6429 48.353 45.7259 48.4134 45.8431 48.4281C48.8945 49.011 51.4225 49.3378 53.7949 49.4556C54.4413 49.488 55.07 49.5042 55.6839 49.5042C57.9287 49.5042 59.9556 49.2878 61.8371 48.8462C62.0417 48.7991 62.1693 48.5945 62.1203 48.3913C62.0729 48.1867 61.8668 48.0616 61.6622 48.1087Z" fill="white"/>
<path d="M33.1765 41.3019C31.246 39.718 29.5275 37.8235 28.067 35.6729C27.9499 35.4992 27.7127 35.4536 27.5377 35.5699C27.3627 35.6876 27.3168 35.9231 27.4339 36.0968C28.9344 38.3078 30.7033 40.2553 32.6901 41.8863C32.7613 41.9437 32.8473 41.9732 32.9333 41.9732C33.043 41.9732 33.1527 41.926 33.2269 41.8348C33.3618 41.6743 33.3396 41.4344 33.1765 41.3019Z" fill="white"/>
<path d="M77.1673 26.2196C77.2148 26.2196 77.2622 26.2108 77.3097 26.1931L78.9763 25.5248C79.172 25.4468 79.2669 25.226 79.1883 25.0317C79.1097 24.8374 78.8873 24.7431 78.6916 24.8226L77.0235 25.4895C76.8278 25.5675 76.7344 25.7883 76.813 25.9826C76.8723 26.1298 77.0161 26.2196 77.1673 26.2196Z" fill="white"/>
<path d="M37.8753 27.3266C37.9301 27.4826 38.0784 27.5812 38.237 27.5812C38.2771 27.5812 38.3201 27.5739 38.3616 27.5606L40.0608 26.9762C40.2595 26.907 40.3647 26.6921 40.2965 26.4934C40.2268 26.2962 40.0089 26.1916 39.8102 26.2594L38.111 26.8437C37.9123 26.9129 37.8071 27.1278 37.8753 27.3266Z" fill="white"/>
<path d="M40.8347 14.9543C40.9088 15.0588 41.0274 15.1147 41.1475 15.1147C41.2231 15.1147 41.3002 15.0926 41.3669 15.047L42.8393 14.0225C43.0113 13.9033 43.0543 13.6663 42.9327 13.4955C42.8126 13.3233 42.5739 13.2821 42.4019 13.4028L40.9281 14.4258C40.7561 14.5465 40.7131 14.7821 40.8347 14.9543Z" fill="white"/>
<path d="M53.9698 9.7021C54.0424 9.7021 54.1151 9.68149 54.1803 9.6388L55.6794 8.65549C55.8558 8.54067 55.9047 8.30515 55.7891 8.12998C55.672 7.95628 55.4347 7.9077 55.2598 8.02252L53.7592 9.00583C53.5828 9.12212 53.5354 9.35617 53.651 9.53134C53.7237 9.64174 53.8452 9.7021 53.9698 9.7021Z" fill="white"/>
<path d="M31.5292 22.7236C31.6048 22.8134 31.7145 22.8605 31.8242 22.8605C31.9087 22.8605 31.9962 22.831 32.0674 22.7722C32.229 22.6382 32.2513 22.3997 32.1163 22.2393L30.9687 20.8659C30.8338 20.704 30.5936 20.6819 30.4305 20.8158C30.2689 20.9498 30.2466 21.1883 30.3815 21.3502L31.5292 22.7236Z" fill="white"/>
<path d="M34.5612 10.5971L36.3019 11.0461C36.3345 11.0549 36.3656 11.0593 36.3983 11.0593C36.5673 11.0593 36.723 10.946 36.7674 10.7752C36.8208 10.5721 36.6978 10.366 36.4931 10.313L34.7539 9.86406C34.5493 9.81106 34.3417 9.93324 34.2883 10.1364C34.235 10.338 34.358 10.5456 34.5612 10.5971Z" fill="white"/>
<path d="M50.2633 34.6131C50.167 34.4277 49.9371 34.3541 49.7488 34.4497C49.562 34.5454 49.4879 34.7736 49.5843 34.9591L50.4042 36.5474C50.4724 36.6784 50.6058 36.7534 50.7452 36.7534C50.803 36.7534 50.8624 36.7402 50.9187 36.7122C51.1055 36.6166 51.1797 36.3884 51.0833 36.2014L50.2633 34.6131Z" fill="white"/>
<path d="M65.7561 37.9458C65.5738 37.8427 65.3395 37.9046 65.2357 38.0856L64.3387 39.6327C64.2334 39.8153 64.2971 40.0464 64.4795 40.1509C64.5403 40.1847 64.6055 40.2009 64.6693 40.2009C64.8013 40.2009 64.9303 40.1332 65.0014 40.011L65.897 38.4639C66.0023 38.2829 65.9385 38.0503 65.7561 37.9458Z" fill="white"/>
<path d="M68.9068 28.7721C68.8059 28.5896 68.5732 28.5219 68.3878 28.6234C68.204 28.7235 68.1358 28.9546 68.2381 29.1372L69.104 30.7019C69.1737 30.8271 69.3041 30.8977 69.4391 30.8977C69.5013 30.8977 69.5636 30.883 69.6229 30.8521C69.8068 30.7505 69.875 30.5209 69.7727 30.3369L68.9068 28.7721Z" fill="white"/>
<path d="M40.4538 33.621C40.2714 33.5165 40.0386 33.5798 39.9333 33.7608L39.0378 35.3079C38.9325 35.489 38.9948 35.7215 39.1771 35.8261C39.2379 35.8599 39.3032 35.8761 39.3669 35.8761C39.5004 35.8761 39.6279 35.8084 39.6991 35.6862L40.5946 34.1391C40.6999 33.9566 40.6376 33.7255 40.4538 33.621Z" fill="white"/>
<path d="M69.1545 19.7899C69.2302 19.8841 69.3414 19.9327 69.4526 19.9327C69.5371 19.9327 69.6201 19.9062 69.6913 19.8503C69.8559 19.7192 69.8826 19.4808 69.7506 19.3174L68.6282 17.9234C68.4962 17.76 68.256 17.7335 68.0914 17.863C67.9268 17.994 67.9002 18.2325 68.0321 18.3959L69.1545 19.7899Z" fill="white"/>
<path d="M48.2959 5.29486L49.7697 6.31792C49.8364 6.36502 49.9121 6.3871 49.9877 6.3871C50.1078 6.3871 50.2264 6.32969 50.3005 6.22518C50.4221 6.05295 50.3791 5.81743 50.2071 5.69672L48.7333 4.67367C48.5613 4.55443 48.3226 4.59565 48.2025 4.76788C48.0809 4.93863 48.1224 5.17563 48.2959 5.29486Z" fill="white"/>
<path d="M65.2507 8.09611C65.2922 8.09611 65.3337 8.08875 65.3753 8.07403L65.9209 7.88561C66.1211 7.8179 66.2263 7.60151 66.1566 7.40426C66.087 7.20701 65.8705 7.10102 65.6703 7.17021L65.1247 7.35863C64.926 7.42781 64.8207 7.64273 64.8904 7.84145C64.9453 7.99748 65.0921 8.09611 65.2507 8.09611Z" fill="white"/>
<path d="M82.5848 29.0091C82.6589 29.1166 82.779 29.174 82.9006 29.174C82.9747 29.174 83.0504 29.1519 83.1156 29.1077C83.2906 28.99 83.335 28.753 83.2149 28.5808L82.1993 27.1087C82.0792 26.935 81.8419 26.8909 81.6685 27.0101C81.495 27.1279 81.4505 27.3634 81.5691 27.5371L82.5848 29.0091Z" fill="white"/>
<path d="M37.2702 17.6098L39.0094 18.0588C39.042 18.0676 39.0746 18.072 39.1058 18.072C39.2763 18.072 39.4305 17.9587 39.475 17.7879C39.5283 17.5848 39.4053 17.3787 39.2021 17.3257L37.4614 16.8767C37.2583 16.8237 37.0492 16.9459 36.9959 17.1476C36.9425 17.3507 37.0655 17.5583 37.2702 17.6098Z" fill="white"/>
<path d="M45.8848 32.1268C46.0153 32.1268 46.1428 32.0591 46.214 31.9398C46.3207 31.7588 46.26 31.5277 46.0791 31.4202L44.5296 30.5164C44.3472 30.4104 44.113 30.4693 44.0062 30.6503C43.8995 30.8314 43.9603 31.0625 44.1426 31.1685L45.6921 32.0738C45.7529 32.1091 45.8196 32.1268 45.8848 32.1268Z" fill="white"/>
<path d="M57.8221 32.5332L56.2668 33.4311C56.0844 33.5357 56.0221 33.7682 56.1289 33.9493C56.2001 34.07 56.3276 34.1377 56.4595 34.1377C56.5248 34.1377 56.59 34.12 56.6508 34.0862L58.2047 33.1897C58.3871 33.0837 58.4493 32.8526 58.3426 32.6716C58.2373 32.4905 58.003 32.4287 57.8221 32.5332Z" fill="white"/>
<path d="M30.6394 28.6323C30.457 28.7368 30.3962 28.9694 30.5015 29.1504C30.5727 29.2711 30.7002 29.3388 30.8322 29.3388C30.8974 29.3388 30.9626 29.3226 31.0234 29.2873L32.5773 28.3909C32.7597 28.2849 32.822 28.0538 32.7167 27.8727C32.6099 27.6916 32.3772 27.6298 32.1948 27.7358L30.6394 28.6323Z" fill="white"/>
<path d="M57.6307 37.404L56.108 38.352C55.93 38.4639 55.8752 38.6979 55.9879 38.8746C56.0605 38.9894 56.1851 39.0527 56.3111 39.0527C56.3808 39.0527 56.4505 39.0335 56.5142 38.9938L58.037 38.0458C58.2149 37.9339 58.2698 37.6999 58.1571 37.5233C58.0459 37.3451 57.8101 37.2921 57.6307 37.404Z" fill="white"/>
<path d="M49.8644 10.1172L49.172 11.7643C49.0919 11.9572 49.1838 12.1795 49.3781 12.2604C49.4255 12.2796 49.4759 12.2899 49.5249 12.2899C49.6746 12.2899 49.8155 12.2015 49.8777 12.0558L50.5687 10.4086C50.6502 10.2158 50.5583 9.9935 50.3641 9.91254C50.1684 9.83305 49.9459 9.92432 49.8644 10.1172Z" fill="white"/>
<path d="M61.0576 6.28848C61.1303 6.39594 61.2504 6.45334 61.372 6.45334C61.4461 6.45334 61.5217 6.43126 61.5869 6.3871C61.7619 6.26934 61.8064 6.03235 61.6863 5.86012L60.6706 4.3881C60.5505 4.21587 60.3133 4.17171 60.1398 4.28947C59.9649 4.40723 59.9219 4.64423 60.0405 4.81646L61.0576 6.28848Z" fill="white"/>
<path d="M40.9696 9.28258C41.0437 9.38857 41.1638 9.44745 41.2854 9.44745C41.3595 9.44745 41.4337 9.42537 41.5004 9.37973C41.6739 9.26197 41.7183 9.02645 41.5997 8.85275L40.5826 7.38073C40.464 7.2085 40.2252 7.16434 40.0518 7.28357C39.8783 7.40134 39.8338 7.63686 39.9524 7.81056L40.9696 9.28258Z" fill="white"/>
<path d="M72.934 29.9526C72.7605 30.0704 72.716 30.3074 72.8361 30.4796L73.8518 31.9516C73.9259 32.0591 74.046 32.1165 74.1676 32.1165C74.2417 32.1165 74.3174 32.0944 74.3826 32.0503C74.5561 31.931 74.6006 31.6955 74.4819 31.5233L73.4648 30.0512C73.3462 29.879 73.1089 29.8349 72.934 29.9526Z" fill="white"/>
<path d="M61.176 12.68C61.0026 12.7978 60.9581 13.0348 61.0767 13.207L62.0938 14.679C62.168 14.7865 62.2866 14.8439 62.4082 14.8439C62.4838 14.8439 62.5579 14.8218 62.6247 14.7776C62.7981 14.6584 62.8426 14.4229 62.7225 14.2507L61.7068 12.7786C61.5867 12.6049 61.3495 12.5622 61.176 12.68Z" fill="white"/>
<path d="M65.5708 32.9866C65.5397 32.7805 65.3454 32.6377 65.1378 32.6671L63.3586 32.9292C63.151 32.9601 63.0072 33.1529 63.0368 33.3605C63.065 33.5489 63.2281 33.6843 63.4149 33.6843C63.4327 33.6843 63.452 33.6828 63.4713 33.6799L65.249 33.4179C65.4581 33.387 65.6019 33.1941 65.5708 32.9866Z" fill="white"/>
<path d="M46.5874 39.855L45.1996 40.99C45.0365 41.1239 45.0127 41.3624 45.1477 41.5243C45.2233 41.6141 45.333 41.6612 45.4427 41.6612C45.5272 41.6612 45.6132 41.6332 45.6844 41.5744L47.0722 40.4394C47.2353 40.307 47.2576 40.0685 47.1241 39.9066C46.9907 39.7446 46.749 39.7211 46.5874 39.855Z" fill="white"/>
<path d="M72.5961 22.2732C72.6391 22.4469 72.7948 22.5617 72.9668 22.5617C72.998 22.5617 73.0276 22.5588 73.0587 22.5514C73.2634 22.4999 73.3879 22.2953 73.3375 22.0921L72.906 20.3596C72.8556 20.1564 72.6495 20.0313 72.4449 20.0828C72.2403 20.1329 72.1143 20.3375 72.1647 20.5406L72.5961 22.2732Z" fill="white"/>
<path d="M11.8914 57.5039L11.3042 60.1476L5.75294 58.9347L5.11834 61.7904L9.27587 62.6972L8.70651 65.2585L4.54897 64.3517L3.32722 69.8335L0 69.1034L3.01288 55.5608L11.8914 57.5039Z" fill="white"/>
<path d="M17.9424 72.7114C16.866 72.5539 15.9334 72.183 15.1431 71.5986C14.3557 71.0098 13.7805 70.2561 13.4172 69.3375C13.0524 68.419 12.9561 67.393 13.1266 66.2581C13.2956 65.1393 13.693 64.1913 14.3187 63.4141C14.9474 62.6339 15.7273 62.0805 16.6614 61.7537C17.5984 61.4284 18.6037 61.3445 19.6802 61.5005C20.7552 61.6624 21.6907 62.0348 22.4855 62.6192C23.2832 63.2051 23.8674 63.9617 24.2351 64.892C24.6058 65.8194 24.7066 66.841 24.5376 67.9597C24.367 69.0785 23.9652 70.0294 23.3336 70.8096C22.7005 71.5868 21.9117 72.1373 20.9672 72.4641C20.0257 72.7894 19.0174 72.8719 17.9424 72.7114ZM18.3813 69.8145C19.0248 69.9131 19.609 69.7615 20.1309 69.3611C20.6558 68.9607 20.985 68.3233 21.1155 67.4475C21.2459 66.576 21.1243 65.8753 20.7537 65.3454C20.386 64.8125 19.8818 64.4961 19.2413 64.3974C18.5845 64.3032 18.0047 64.4548 17.5036 64.8508C17.0009 65.2483 16.6821 65.8871 16.5487 66.7703C16.4182 67.6462 16.5309 68.3483 16.8867 68.8783C17.2426 69.4082 17.7408 69.7203 18.3813 69.8145Z" fill="white"/>
<path d="M32.9297 74.4018C31.8459 74.3193 30.8895 74.0146 30.0592 73.4891C29.2289 72.9636 28.5972 72.2555 28.1673 71.3635C27.7358 70.4729 27.5638 69.4558 27.6513 68.3135C27.7373 67.183 28.0664 66.2085 28.6358 65.3871C29.2052 64.5672 29.9436 63.9607 30.8539 63.5677C31.7628 63.1717 32.7592 63.0142 33.8431 63.0966C34.9255 63.1791 35.8863 63.4838 36.7255 64.0093C37.5632 64.5363 38.1993 65.2487 38.6352 66.1467C39.0697 67.0461 39.2431 68.0603 39.1572 69.1908C39.0697 70.3184 38.739 71.2928 38.1667 72.1172C37.5929 72.9386 36.8471 73.545 35.9308 73.9366C35.013 74.3282 34.0121 74.4842 32.9297 74.4018ZM33.1551 71.4813C33.8031 71.5284 34.3724 71.3341 34.8632 70.8983C35.3569 70.4626 35.6372 69.8061 35.7054 68.9258C35.7766 68.0426 35.606 67.3508 35.1953 66.8473C34.7876 66.341 34.2612 66.0628 33.6177 66.0112C32.9535 65.9641 32.3856 66.157 31.9156 66.5883C31.4441 67.021 31.1742 67.6834 31.103 68.5784C31.0348 69.4587 31.1979 70.1491 31.5894 70.651C31.9838 71.1545 32.5057 71.4312 33.1551 71.4813Z" fill="white"/>
<path d="M42.2891 69.3061C42.292 68.1727 42.51 67.1776 42.9415 66.3209C43.3759 65.4656 43.9645 64.8076 44.7089 64.3484C45.4517 63.8891 46.2805 63.6595 47.1939 63.6595C47.9249 63.6639 48.5906 63.817 49.1926 64.1187C49.7975 64.422 50.269 64.8297 50.6101 65.3435L50.6219 60.2267L54.0262 60.2326L54.0025 74.8527L50.5982 74.8468V73.2688C50.2809 73.7958 49.8272 74.2168 49.2341 74.5348C48.644 74.8483 47.959 75.0029 47.1761 74.9999C46.2627 74.9999 45.4339 74.7673 44.6911 74.2992C43.9467 73.8282 43.3596 73.1614 42.9296 72.2973C42.5026 71.4347 42.2891 70.4367 42.2891 69.3061ZM50.6041 69.3356C50.6071 68.4921 50.3743 67.8268 49.9043 67.3395C49.4328 66.8538 48.8605 66.6094 48.1843 66.6094C47.5082 66.6065 46.9344 66.8449 46.4644 67.3277C45.9929 67.8076 45.7557 68.4686 45.7527 69.312C45.7527 70.1526 45.987 70.8194 46.4585 71.314C46.9285 71.8086 47.5023 72.0588 48.1784 72.0618C48.8545 72.0618 49.4269 71.8189 49.8984 71.3316C50.3684 70.8459 50.6041 70.1805 50.6041 69.3356Z" fill="white"/>
<path d="M60.4119 62.8912L60.8567 65.6645L65.3582 64.952L65.7734 67.5251L61.2719 68.2376L61.7523 71.2405L66.841 70.4397L67.268 73.1129L58.8165 74.4436L56.6221 60.7479L65.0736 59.4172L65.5006 62.0904L60.4119 62.8912Z" fill="white"/>
<path d="M69.704 67.2069C69.6403 66.0764 69.8004 65.0725 70.1844 64.1922C70.5714 63.3134 71.123 62.6245 71.8392 62.1255C72.5538 61.6279 73.3693 61.3541 74.2827 61.307C75.0611 61.2643 75.755 61.3865 76.3644 61.6721C76.9723 61.9547 77.4498 62.3433 77.7937 62.8379L77.7107 61.2835L81.1091 61.101L81.7022 72.1058L78.3038 72.2883L78.2208 70.728C77.9153 71.2579 77.4764 71.698 76.9041 72.0469C76.3303 72.3928 75.6542 72.5871 74.8758 72.6298C73.9743 72.6769 73.1395 72.487 72.3729 72.0587C71.6093 71.6318 70.9881 70.9988 70.5106 70.1627C70.0317 69.3237 69.7634 68.3374 69.704 67.2069ZM78.0073 66.783C77.9598 65.9439 77.687 65.2918 77.1888 64.8281C76.6936 64.3659 76.1094 64.1539 75.4333 64.1922C74.7601 64.2275 74.2011 64.4984 73.7548 65.0048C73.3115 65.5111 73.1143 66.1853 73.1617 67.0244C73.2047 67.8649 73.4761 68.5199 73.9743 68.991C74.4725 69.4591 75.0567 69.674 75.7298 69.6387C76.4059 69.6004 76.9649 69.3251 77.4082 68.8143C77.8501 68.305 78.0503 67.6279 78.0073 66.783Z" fill="white"/>
<path d="M89.8932 72.554C88.9236 72.5024 88.0695 72.2949 87.3311 71.9298C86.5912 71.5618 86.0174 71.0805 85.6112 70.4873C85.2034 69.8911 84.9914 69.2375 84.9766 68.5265L88.3334 68.6973C88.3527 69.0785 88.5143 69.3965 88.8198 69.6511C89.1237 69.9073 89.5092 70.0456 89.9763 70.0692C90.3989 70.0898 90.731 70.0221 90.9727 69.869C91.2129 69.7159 91.3404 69.5084 91.3522 69.2449C91.3671 68.9313 91.2129 68.6899 90.8896 68.5206C90.5694 68.3528 90.043 68.1556 89.312 67.9318C88.5247 67.7125 87.8723 67.4873 87.3548 67.2547C86.8359 67.0236 86.3955 66.6777 86.0323 66.2184C85.672 65.7591 85.5118 65.1526 85.5519 64.399C85.583 63.7675 85.7891 63.2007 86.1687 62.6973C86.5482 62.1954 87.085 61.8126 87.7819 61.5491C88.4773 61.2827 89.2957 61.1723 90.2372 61.2194C91.628 61.2901 92.7074 61.689 93.4755 62.4147C94.2421 63.1374 94.6557 64.0692 94.715 65.2115L91.5717 65.0467C91.5361 64.6625 91.3819 64.3504 91.1091 64.1105C90.8392 63.872 90.4745 63.7395 90.0119 63.716C89.6115 63.6968 89.3016 63.7572 89.0807 63.8985C88.8628 64.0369 88.7486 64.237 88.7367 64.4991C88.716 64.817 88.8702 65.0643 89.1993 65.241C89.5315 65.4147 90.0504 65.5987 90.7592 65.7944C91.5658 66.0417 92.2211 66.2817 92.7282 66.5128C93.2383 66.7454 93.6742 67.0987 94.0389 67.5726C94.4066 68.0481 94.5786 68.6664 94.5549 69.4274C94.5223 70.0751 94.3088 70.6433 93.9144 71.1291C93.5229 71.6163 92.9788 71.9872 92.2834 72.2419C91.5865 72.4966 90.7903 72.6011 89.8932 72.554Z" fill="white"/>
<path d="M108.915 68.9032C108.868 69.2138 108.798 69.5376 108.708 69.8747L101.093 68.7148C101.045 69.3978 101.187 69.9483 101.52 70.3634C101.852 70.78 102.298 71.0317 102.86 71.1171C103.702 71.2437 104.34 70.9802 104.776 70.3281L108.352 70.8757C108.055 71.5631 107.622 72.1578 107.053 72.6598C106.487 73.1573 105.819 73.515 105.048 73.7314C104.277 73.9463 103.447 73.9875 102.558 73.8551C101.481 73.6902 100.559 73.3148 99.7878 72.7304C99.0197 72.146 98.4667 71.3938 98.1271 70.4753C97.7861 69.5568 97.7031 68.5322 97.8781 67.4017C98.0515 66.2683 98.4356 65.3144 99.0286 64.5401C99.6247 63.7629 100.378 63.2123 101.288 62.8856C102.202 62.5602 103.201 62.4793 104.289 62.6441C105.352 62.8061 106.261 63.1711 107.018 63.7393C107.777 64.3046 108.324 65.0332 108.66 65.9238C109 66.8158 109.084 67.808 108.915 68.9032ZM105.612 67.5018C105.702 66.9292 105.576 66.4449 105.232 66.0475C104.888 65.6515 104.421 65.4086 103.833 65.3173C103.271 65.232 102.771 65.3217 102.332 65.5882C101.896 65.8517 101.586 66.2756 101.401 66.86L105.612 67.5018Z" fill="white"/>
</svg>
