<svg xmlns="http://www.w3.org/2000/svg" xmlns:xlink="http://www.w3.org/1999/xlink" width="500" zoomAndPan="magnify" viewBox="0 0 375 374.999991" height="500" preserveAspectRatio="xMidYMid meet" version="1.0"><defs><clipPath id="3ac3372033"><path d="M 37.5 76 L 337 76 L 337 336.660156 L 37.5 336.660156 Z M 37.5 76 " clip-rule="nonzero"/></clipPath></defs><g clip-path="url(#3ac3372033)"><path fill="#1c7817" d="M 38.636719 208.242188 C 38.636719 208.757812 38.640625 209.273438 38.648438 209.792969 C 38.929688 227.296875 43.128906 244.21875 51.136719 260.078125 C 54.980469 267.695312 59.707031 275.023438 65.179688 281.859375 C 70.59375 288.628906 76.792969 294.972656 83.59375 300.71875 C 90.394531 306.460938 97.859375 311.652344 105.777344 316.148438 C 113.765625 320.6875 122.292969 324.558594 131.117188 327.65625 C 148.613281 333.792969 167.089844 336.902344 186.078125 336.902344 C 187.007812 336.902344 187.9375 336.894531 188.867188 336.878906 C 208.839844 336.558594 228.160156 332.835938 246.296875 325.816406 C 255.015625 322.441406 263.414062 318.296875 271.257812 313.507812 C 279.027344 308.757812 286.320312 303.332031 292.933594 297.375 C 299.550781 291.414062 305.542969 284.875 310.738281 277.9375 C 315.988281 270.929688 320.476562 263.453125 324.078125 255.71875 C 329.828125 243.359375 333.320312 230.449219 334.507812 217.203125 C 336.820312 209.859375 337.484375 201.234375 336.421875 191.683594 C 336.351562 191.054688 335.957031 190.507812 335.378906 190.242188 C 334.796875 189.980469 334.125 190.039062 333.601562 190.402344 C 333 190.816406 332.347656 191.160156 331.65625 191.421875 C 331.601562 191.445312 331.546875 191.464844 331.492188 191.484375 C 331.410156 191.515625 331.328125 191.542969 331.246094 191.570312 C 331.246094 191.570312 331.242188 191.570312 331.242188 191.570312 C 331.21875 191.578125 331.195312 191.589844 331.171875 191.597656 C 331.101562 191.625 331.03125 191.65625 330.960938 191.691406 C 329.898438 192.253906 328.792969 192.59375 327.613281 192.710938 C 327.21875 192.75 326.816406 192.765625 326.402344 192.757812 C 326.359375 192.757812 326.316406 192.757812 326.269531 192.757812 C 324.625 192.847656 323.125 192.546875 321.679688 191.839844 C 321.589844 191.792969 321.492188 191.757812 321.394531 191.730469 C 319.804688 191.261719 318.453125 190.433594 317.273438 189.199219 C 317.265625 189.191406 317.257812 189.183594 317.25 189.179688 C 317.242188 189.171875 317.238281 189.164062 317.230469 189.15625 C 316.945312 188.878906 316.679688 188.597656 316.429688 188.308594 C 315.855469 187.644531 315.363281 186.945312 314.945312 186.199219 C 314.945312 186.195312 314.945312 186.191406 314.941406 186.191406 C 314.828125 185.980469 314.71875 185.769531 314.613281 185.554688 C 314.601562 185.527344 314.589844 185.5 314.574219 185.476562 C 314.28125 184.851562 314.03125 184.195312 313.828125 183.507812 L 313.796875 183.289062 C 313.777344 183.148438 313.742188 183.015625 313.691406 182.890625 C 313.542969 182.507812 313.269531 182.183594 312.90625 181.976562 C 312.425781 181.703125 311.839844 181.664062 311.328125 181.875 C 308.640625 182.980469 305.75 183.507812 302.734375 183.445312 C 302.6875 183.445312 302.644531 183.445312 302.601562 183.449219 C 298.871094 183.644531 295.316406 182.933594 292.035156 181.328125 C 291.945312 181.28125 291.847656 181.246094 291.75 181.214844 C 288.808594 180.351562 286.152344 178.898438 283.820312 176.886719 C 283.285156 176.421875 282.765625 175.925781 282.261719 175.402344 C 282.25 175.386719 282.234375 175.375 282.21875 175.359375 C 278.546875 171.78125 275.96875 167.472656 274.558594 162.554688 L 274.375 161.304688 L 273.472656 155.0625 C 273.46875 154.316406 273.488281 153.570312 273.539062 152.832031 C 273.546875 152.707031 273.554688 152.585938 273.5625 152.460938 C 273.605469 151.914062 273.394531 151.382812 273 151.011719 C 272.964844 150.976562 272.921875 150.941406 272.882812 150.90625 C 272.851562 150.882812 272.816406 150.859375 272.785156 150.835938 C 272.75 150.8125 272.71875 150.792969 272.683594 150.769531 C 272.628906 150.738281 272.574219 150.710938 272.519531 150.6875 C 272.503906 150.679688 272.488281 150.671875 272.472656 150.664062 C 272.445312 150.652344 272.417969 150.644531 272.394531 150.632812 C 272.382812 150.628906 272.371094 150.625 272.363281 150.621094 C 272.292969 150.597656 272.21875 150.578125 272.148438 150.5625 C 272.144531 150.558594 272.140625 150.558594 272.136719 150.558594 C 271.753906 150.476562 271.351562 150.519531 270.988281 150.695312 C 270.375 150.988281 269.742188 151.230469 269.097656 151.429688 C 269 151.460938 268.898438 151.488281 268.800781 151.515625 C 268.445312 150.640625 268.292969 149.71875 268.339844 148.730469 C 268.480469 145.839844 270.324219 142.941406 271.84375 141.015625 C 273.578125 138.820312 275.316406 137.355469 275.332031 137.34375 C 275.699219 137.035156 275.925781 136.597656 275.96875 136.121094 C 276.609375 129.027344 275.746094 122.164062 273.398438 115.722656 C 271.507812 110.519531 268.652344 105.585938 264.914062 101.0625 C 258.789062 93.644531 251.835938 89.3125 250.3125 88.691406 C 250.3125 88.6875 250.308594 88.6875 250.308594 88.6875 C 232.292969 81.148438 213.21875 76.992188 193.621094 76.332031 C 173.757812 75.664062 153.925781 78.613281 134.683594 85.105469 C 109.601562 93.5625 87.550781 107.21875 70.90625 124.597656 C 62.078125 133.816406 54.847656 144.011719 49.421875 154.902344 C 43.6875 166.414062 39.945312 178.753906 38.308594 191.570312 C 38.140625 192.875 37.992188 194.207031 37.867188 195.53125 C 37.511719 199.285156 37.6875 203.144531 38.390625 207.003906 C 38.464844 207.417969 38.546875 207.828125 38.636719 208.242188 Z M 320.804688 254.195312 C 317.3125 261.707031 312.953125 268.964844 307.851562 275.773438 C 302.792969 282.523438 296.960938 288.890625 290.519531 294.695312 C 284.070312 300.5 276.957031 305.796875 269.375 310.429688 C 261.71875 315.105469 253.515625 319.152344 244.992188 322.453125 C 227.257812 329.320312 208.355469 332.960938 188.8125 333.269531 C 169.269531 333.582031 150.257812 330.550781 132.3125 324.25 C 123.691406 321.226562 115.363281 317.445312 107.558594 313.011719 C 99.832031 308.625 92.554688 303.5625 85.921875 297.960938 C 79.296875 292.367188 73.265625 286.191406 67.996094 279.605469 C 62.679688 272.964844 58.089844 265.847656 54.359375 258.453125 C 48.171875 246.199219 44.332031 233.292969 42.890625 219.972656 C 46.277344 226.371094 51.035156 231.625 56.746094 235.253906 C 60.226562 237.460938 64.121094 239.019531 67.890625 240.527344 C 73.960938 242.957031 79.699219 245.25 83.4375 249.976562 C 86.105469 253.351562 87.394531 257.546875 88.753906 261.988281 C 89.316406 263.824219 89.898438 265.722656 90.589844 267.558594 C 92.980469 273.941406 96.910156 279.902344 101.945312 284.800781 C 106.984375 289.695312 113.054688 293.453125 119.503906 295.664062 C 125.632812 297.765625 131.414062 298.316406 136.6875 297.296875 C 144.152344 295.855469 150.460938 291.308594 156.566406 286.914062 C 163.558594 281.878906 170.164062 277.125 178.050781 277.070312 C 178.09375 277.070312 178.140625 277.070312 178.1875 277.070312 C 186.578125 277.070312 193.539062 282.375 200.90625 287.992188 C 207.871094 293.304688 215.074219 298.796875 223.851562 299.761719 C 224.722656 299.855469 225.597656 299.90625 226.472656 299.90625 C 231.667969 299.90625 236.96875 298.242188 241.945312 295.023438 C 247.015625 291.742188 251.699219 286.851562 255.128906 281.246094 C 257.050781 278.105469 258.671875 274.777344 260.242188 271.558594 C 262.132812 267.675781 264.089844 263.664062 266.53125 260.101562 C 269.765625 255.375 274.097656 251.203125 279.054688 248.035156 C 284.011719 244.867188 289.617188 242.691406 295.265625 241.738281 C 297.628906 241.339844 300.125 241.121094 302.539062 240.910156 C 308.054688 240.425781 313.757812 239.925781 318.875 237.285156 C 322.703125 235.308594 326.171875 232.273438 328.90625 228.515625 C 329.0625 228.300781 329.214844 228.082031 329.367188 227.863281 C 327.632812 236.859375 324.777344 245.664062 320.804688 254.195312 Z M 249.554688 92.902344 C 249.558594 92.898438 249.558594 92.898438 249.558594 92.898438 C 249.667969 92.78125 249.777344 92.664062 249.886719 92.550781 C 250.703125 93.042969 251.988281 93.878906 253.605469 95.121094 C 255.804688 96.8125 259.09375 99.644531 262.269531 103.527344 C 265.707031 107.722656 268.324219 112.28125 270.054688 117.078125 C 272.105469 122.769531 272.90625 128.824219 272.433594 135.089844 C 270.589844 136.78125 265.042969 142.363281 264.738281 148.542969 C 264.675781 149.761719 264.816406 150.925781 265.15625 152.035156 C 264.988281 152.035156 264.820312 152.035156 264.648438 152.03125 C 264.605469 152.03125 264.5625 152.03125 264.515625 152.035156 C 262.066406 152.164062 259.734375 151.695312 257.582031 150.644531 C 257.488281 150.597656 257.394531 150.5625 257.296875 150.53125 C 256.703125 150.359375 256.125 150.148438 255.570312 149.902344 C 254.628906 149.484375 253.738281 148.964844 252.90625 148.34375 C 252.628906 148.136719 252.359375 147.917969 252.09375 147.691406 C 251.859375 147.484375 251.628906 147.273438 251.402344 147.054688 C 251.289062 146.941406 251.179688 146.832031 251.070312 146.714844 C 251.054688 146.699219 251.039062 146.6875 251.023438 146.671875 C 250.265625 145.933594 249.578125 145.144531 248.960938 144.316406 C 247.605469 142.488281 246.597656 140.445312 245.953125 138.214844 L 245.902344 137.875 L 245.222656 133.175781 C 245.203125 130.410156 245.753906 127.753906 246.859375 125.257812 C 246.894531 125.179688 246.925781 125.101562 246.960938 125.023438 C 246.96875 125.007812 246.980469 124.988281 246.988281 124.96875 C 247.148438 124.621094 247.316406 124.277344 247.5 123.9375 L 249.355469 121.425781 L 250.691406 119.609375 C 250.726562 119.574219 250.757812 119.539062 250.792969 119.503906 C 250.796875 119.5 250.796875 119.496094 250.800781 119.492188 C 250.800781 119.492188 250.804688 119.488281 250.808594 119.488281 C 250.914062 119.371094 251.03125 119.25 251.160156 119.117188 C 251.339844 118.9375 251.476562 118.722656 251.566406 118.488281 C 251.632812 118.316406 251.671875 118.128906 251.683594 117.941406 C 251.683594 117.878906 251.683594 117.8125 251.679688 117.75 C 251.675781 117.621094 251.652344 117.496094 251.621094 117.375 C 251.523438 117.015625 251.3125 116.6875 251.015625 116.445312 C 250.613281 116.121094 250.226562 115.765625 249.859375 115.382812 C 249.847656 115.371094 249.839844 115.363281 249.828125 115.351562 C 249.824219 115.347656 249.820312 115.34375 249.816406 115.335938 C 247.808594 113.382812 246.398438 111.03125 245.617188 108.347656 L 245.414062 106.945312 L 245.007812 104.136719 C 244.996094 101.933594 245.417969 99.816406 246.265625 97.816406 C 246.324219 97.683594 246.382812 97.550781 246.441406 97.417969 C 246.578125 97.117188 246.726562 96.816406 246.886719 96.519531 Z M 41.460938 195.871094 C 41.582031 194.585938 41.726562 193.292969 41.886719 192.03125 C 43.472656 179.613281 47.097656 167.664062 52.652344 156.511719 C 57.914062 145.949219 64.933594 136.050781 73.511719 127.089844 C 89.753906 110.132812 111.304688 96.792969 135.835938 88.523438 C 154.667969 82.171875 174.066406 79.285156 193.5 79.9375 C 211.773438 80.550781 229.578125 84.277344 246.464844 91.015625 L 243.90625 94.480469 C 243.855469 94.550781 243.808594 94.621094 243.769531 94.695312 C 242.761719 96.558594 242.070312 98.519531 241.707031 100.554688 C 241.671875 100.757812 241.636719 100.964844 241.605469 101.167969 C 241.457031 102.195312 241.386719 103.238281 241.402344 104.296875 C 241.402344 104.375 241.410156 104.457031 241.421875 104.53125 L 242.0625 108.984375 C 242.074219 109.0625 242.09375 109.140625 242.113281 109.21875 C 243 112.34375 244.578125 115.105469 246.816406 117.4375 C 246.96875 117.59375 247.121094 117.746094 247.273438 117.898438 C 247.3125 117.9375 247.347656 117.976562 247.386719 118.015625 L 244.519531 121.898438 C 244.46875 121.964844 244.425781 122.035156 244.386719 122.109375 C 243.914062 122.980469 243.5 123.871094 243.148438 124.777344 C 242.09375 127.496094 241.578125 130.363281 241.617188 133.335938 C 241.617188 133.414062 241.625 133.492188 241.636719 133.570312 L 242.398438 138.851562 C 242.410156 138.929688 242.425781 139.007812 242.449219 139.082031 C 242.585938 139.570312 242.738281 140.050781 242.90625 140.523438 C 244.074219 143.828125 245.945312 146.753906 248.484375 149.234375 C 250.644531 151.480469 253.214844 153.066406 256.132812 153.953125 C 258.785156 155.21875 261.644531 155.789062 264.640625 155.640625 C 266.441406 155.671875 268.191406 155.445312 269.863281 154.964844 C 269.867188 155.050781 269.867188 155.136719 269.867188 155.222656 C 269.867188 155.300781 269.875 155.378906 269.886719 155.457031 L 271.003906 163.1875 C 271.015625 163.269531 271.03125 163.34375 271.054688 163.421875 C 272.039062 166.90625 273.542969 170.117188 275.542969 173.023438 C 275.941406 173.605469 276.363281 174.171875 276.804688 174.730469 C 277.023438 175.007812 277.246094 175.285156 277.476562 175.554688 C 278.167969 176.371094 278.902344 177.160156 279.679688 177.921875 C 282.753906 181.125 286.425781 183.386719 290.585938 184.632812 C 294.367188 186.457031 298.449219 187.269531 302.722656 187.054688 C 305.53125 187.105469 308.25 186.714844 310.832031 185.894531 C 311.683594 188.089844 312.976562 190.042969 314.6875 191.71875 C 316.253906 193.347656 318.121094 194.5 320.234375 195.144531 C 322.15625 196.058594 324.226562 196.46875 326.394531 196.363281 C 328.5625 196.398438 330.621094 195.925781 332.515625 194.949219 C 332.707031 194.882812 332.898438 194.8125 333.085938 194.738281 C 334.089844 207.695312 331.652344 218.597656 325.984375 226.394531 C 323.582031 229.699219 320.550781 232.359375 317.21875 234.078125 C 312.734375 236.394531 307.628906 236.839844 302.222656 237.316406 C 299.738281 237.535156 297.171875 237.757812 294.664062 238.179688 C 288.542969 239.210938 282.472656 241.570312 277.113281 244.996094 C 271.75 248.421875 267.0625 252.941406 263.554688 258.0625 C 260.960938 261.84375 258.945312 265.980469 256.996094 269.976562 C 255.464844 273.121094 253.882812 276.371094 252.050781 279.363281 C 248.898438 284.515625 244.613281 289 239.984375 291.992188 C 234.871094 295.296875 229.429688 296.746094 224.246094 296.175781 C 216.464844 295.320312 209.96875 290.367188 203.09375 285.121094 C 195.570312 279.386719 187.796875 273.460938 178.1875 273.460938 C 178.132812 273.460938 178.078125 273.460938 178.023438 273.460938 C 168.988281 273.523438 161.601562 278.84375 154.457031 283.988281 C 148.667969 288.152344 142.6875 292.460938 136 293.753906 C 131.355469 294.652344 126.199219 294.148438 120.675781 292.253906 C 114.726562 290.210938 109.117188 286.742188 104.460938 282.210938 C 99.804688 277.683594 96.175781 272.179688 93.964844 266.289062 C 93.316406 264.558594 92.75 262.714844 92.203125 260.933594 C 90.804688 256.367188 89.355469 251.644531 86.265625 247.734375 C 81.933594 242.257812 75.472656 239.675781 69.230469 237.175781 C 65.613281 235.730469 61.875 234.234375 58.679688 232.207031 C 52.972656 228.582031 48.300781 223.140625 45.175781 216.46875 C 42.132812 209.972656 40.8125 202.660156 41.460938 195.871094 Z M 41.460938 195.871094 " fill-opacity="1" fill-rule="nonzero"/></g><path fill="#1c7817" d="M 153.363281 209.289062 C 158.902344 211.210938 164.753906 212.433594 169.234375 213.285156 C 174.191406 214.226562 179.320312 215.199219 184.53125 215.324219 C 185.054688 215.335938 185.578125 215.34375 186.109375 215.34375 C 193.09375 215.34375 200.636719 214.277344 207.523438 212.308594 C 216.316406 209.792969 223.652344 205.894531 228.742188 201.035156 C 234.390625 195.636719 237.34375 189.121094 237.507812 181.667969 C 237.625 176.410156 235.714844 170.941406 232.273438 166.667969 C 228.632812 162.148438 223.765625 159.457031 218.566406 159.089844 C 213.898438 158.761719 209.515625 160.195312 205.277344 161.582031 C 203.101562 162.292969 200.851562 163.027344 198.652344 163.484375 C 193.171875 164.621094 187.28125 164.121094 182.074219 162.074219 C 179.726562 161.148438 177.523438 159.941406 175.191406 158.664062 C 172.402344 157.132812 169.519531 155.550781 166.375 154.507812 C 158.058594 151.753906 148.488281 153.238281 141.398438 158.382812 C 134.308594 163.527344 129.929688 172.164062 129.964844 180.921875 C 129.996094 188.390625 132.382812 194.675781 137.066406 199.609375 C 140.898438 203.648438 146.230469 206.8125 153.363281 209.289062 Z M 184.613281 211.714844 C 179.699219 211.601562 174.722656 210.65625 169.90625 209.738281 C 166.832031 209.15625 163.097656 208.390625 159.292969 207.34375 C 154.433594 204.125 151.753906 200.171875 151.6875 196.019531 C 151.609375 191.222656 155.03125 186.574219 161.3125 182.929688 C 167.925781 179.09375 176.804688 176.898438 186.3125 176.746094 C 195.820312 176.59375 204.761719 178.507812 211.492188 182.128906 C 217.890625 185.570312 221.457031 190.105469 221.53125 194.90625 C 221.589844 198.609375 219.566406 202.226562 215.746094 205.359375 C 207.628906 209.234375 196.753906 212.003906 184.613281 211.714844 Z M 143.519531 161.304688 C 147.636719 158.316406 152.714844 156.75 157.785156 156.75 C 160.3125 156.75 162.835938 157.136719 165.242188 157.933594 C 168.070312 158.871094 170.6875 160.304688 173.457031 161.824219 C 175.785156 163.101562 178.191406 164.425781 180.753906 165.429688 C 186.609375 167.730469 193.222656 168.292969 199.382812 167.015625 C 201.78125 166.519531 204.128906 165.753906 206.398438 165.011719 C 210.488281 163.671875 214.351562 162.410156 218.3125 162.6875 C 222.5 162.984375 226.457031 165.199219 229.460938 168.929688 C 232.378906 172.554688 234 177.167969 233.898438 181.585938 C 233.757812 188.046875 231.183594 193.714844 226.25 198.425781 C 225.605469 199.039062 224.894531 199.65625 224.121094 200.261719 C 224.828125 198.503906 225.167969 196.691406 225.140625 194.847656 C 225.089844 191.675781 223.945312 188.640625 221.742188 185.824219 C 219.699219 183.210938 216.828125 180.898438 213.203125 178.949219 C 205.9375 175.042969 196.367188 172.980469 186.253906 173.140625 C 176.140625 173.300781 166.640625 175.667969 159.503906 179.808594 C 155.945312 181.871094 153.144531 184.273438 151.1875 186.949219 C 149.074219 189.835938 148.027344 192.90625 148.078125 196.078125 C 148.128906 199.042969 149.128906 201.890625 151.058594 204.546875 C 146.214844 202.511719 142.472656 200.066406 139.683594 197.125 C 135.597656 192.820312 133.597656 187.515625 133.570312 180.90625 C 133.539062 173.289062 137.351562 165.777344 143.519531 161.304688 Z M 143.519531 161.304688 " fill-opacity="1" fill-rule="nonzero"/><path fill="#1c7817" d="M 312.164062 249.75 C 311.367188 249.148438 310.238281 249.308594 309.636719 250.101562 C 296.417969 267.601562 278.953125 281.804688 259.128906 291.179688 C 258.230469 291.605469 257.84375 292.679688 258.269531 293.582031 C 258.578125 294.234375 259.226562 294.613281 259.902344 294.613281 C 260.160156 294.613281 260.421875 294.558594 260.671875 294.441406 C 281.019531 284.816406 298.949219 270.238281 312.515625 252.277344 C 313.117188 251.484375 312.957031 250.351562 312.164062 249.75 Z M 312.164062 249.75 " fill-opacity="1" fill-rule="nonzero"/><path fill="#1c7817" d="M 218.027344 304.671875 C 207.042969 307.261719 194.941406 308.179688 181.03125 307.480469 C 170.027344 306.925781 158.285156 305.398438 144.101562 302.671875 C 144.097656 302.671875 144.09375 302.667969 144.085938 302.664062 C 143.238281 302.144531 142.128906 302.410156 141.605469 303.257812 C 141.09375 304.09375 141.34375 305.183594 142.160156 305.714844 L 142.167969 305.71875 C 142.328125 305.835938 142.71875 306.121094 143.273438 306.1875 C 157.695312 308.964844 169.636719 310.519531 180.851562 311.085938 C 183.90625 311.238281 186.882812 311.316406 189.777344 311.316406 C 200.386719 311.316406 209.964844 310.28125 218.855469 308.183594 C 219.828125 307.953125 220.429688 306.984375 220.199219 306.015625 C 219.96875 305.042969 219 304.441406 218.027344 304.671875 Z M 218.027344 304.671875 " fill-opacity="1" fill-rule="nonzero"/><path fill="#1c7817" d="M 83.410156 272.265625 C 74.285156 264.726562 66.164062 255.710938 59.265625 245.472656 C 58.707031 244.648438 57.585938 244.429688 56.761719 244.984375 C 55.933594 245.542969 55.714844 246.664062 56.273438 247.488281 C 63.363281 258.015625 71.71875 267.289062 81.113281 275.050781 C 81.449219 275.328125 81.855469 275.460938 82.261719 275.460938 C 82.777344 275.460938 83.292969 275.238281 83.652344 274.808594 C 84.285156 274.039062 84.179688 272.902344 83.410156 272.265625 Z M 83.410156 272.265625 " fill-opacity="1" fill-rule="nonzero"/><path fill="#1c7817" d="M 291.300781 200.476562 C 291.527344 200.476562 291.753906 200.433594 291.976562 200.34375 L 299.855469 197.167969 C 300.78125 196.796875 301.226562 195.746094 300.855469 194.820312 C 300.484375 193.894531 299.433594 193.449219 298.507812 193.820312 L 290.628906 196.996094 C 289.703125 197.371094 289.257812 198.421875 289.628906 199.34375 C 289.914062 200.046875 290.589844 200.476562 291.300781 200.476562 Z M 291.300781 200.476562 " fill-opacity="1" fill-rule="nonzero"/><path fill="#1c7817" d="M 105.617188 205.742188 C 105.875 206.488281 106.574219 206.957031 107.320312 206.957031 C 107.519531 206.957031 107.71875 206.921875 107.914062 206.855469 L 115.941406 204.074219 C 116.882812 203.75 117.382812 202.722656 117.054688 201.78125 C 116.730469 200.839844 115.703125 200.339844 114.761719 200.664062 L 106.730469 203.445312 C 105.789062 203.773438 105.292969 204.800781 105.617188 205.742188 Z M 105.617188 205.742188 " fill-opacity="1" fill-rule="nonzero"/><path fill="#1c7817" d="M 119.601562 146.84375 C 119.953125 147.347656 120.511719 147.613281 121.082031 147.613281 C 121.4375 147.613281 121.800781 147.507812 122.113281 147.289062 L 129.074219 142.414062 C 129.890625 141.84375 130.089844 140.71875 129.515625 139.902344 C 128.945312 139.085938 127.820312 138.886719 127.003906 139.460938 L 120.042969 144.332031 C 119.230469 144.902344 119.03125 146.027344 119.601562 146.84375 Z M 119.601562 146.84375 " fill-opacity="1" fill-rule="nonzero"/><path fill="#1c7817" d="M 181.679688 121.84375 C 182.019531 121.84375 182.363281 121.746094 182.671875 121.546875 L 189.761719 116.863281 C 190.59375 116.316406 190.820312 115.195312 190.273438 114.367188 C 189.722656 113.535156 188.605469 113.304688 187.773438 113.855469 L 180.683594 118.535156 C 179.851562 119.082031 179.621094 120.203125 180.171875 121.035156 C 180.519531 121.558594 181.09375 121.84375 181.679688 121.84375 Z M 181.679688 121.84375 " fill-opacity="1" fill-rule="nonzero"/><path fill="#1c7817" d="M 75.625 183.828125 C 75.984375 184.257812 76.496094 184.480469 77.015625 184.480469 C 77.421875 184.480469 77.832031 184.34375 78.167969 184.066406 C 78.933594 183.429688 79.039062 182.289062 78.402344 181.523438 L 72.976562 174.988281 C 72.339844 174.21875 71.203125 174.113281 70.4375 174.75 C 69.667969 175.386719 69.5625 176.523438 70.199219 177.289062 Z M 75.625 183.828125 " fill-opacity="1" fill-rule="nonzero"/><path fill="#1c7817" d="M 89.957031 126.109375 L 98.179688 128.246094 C 98.332031 128.285156 98.484375 128.304688 98.636719 128.304688 C 99.4375 128.304688 100.167969 127.765625 100.378906 126.953125 C 100.628906 125.988281 100.050781 125.003906 99.085938 124.753906 L 90.863281 122.617188 C 89.898438 122.367188 88.914062 122.945312 88.664062 123.910156 C 88.414062 124.875 88.992188 125.859375 89.957031 126.109375 Z M 89.957031 126.109375 " fill-opacity="1" fill-rule="nonzero"/><path fill="#1c7817" d="M 164.160156 240.429688 C 163.703125 239.542969 162.617188 239.195312 161.730469 239.648438 C 160.84375 240.105469 160.496094 241.191406 160.949219 242.078125 L 164.828125 249.636719 C 165.148438 250.261719 165.78125 250.617188 166.433594 250.617188 C 166.710938 250.617188 166.992188 250.554688 167.257812 250.417969 C 168.144531 249.964844 168.492188 248.875 168.039062 247.988281 Z M 164.160156 240.429688 " fill-opacity="1" fill-rule="nonzero"/><path fill="#1c7817" d="M 237.378906 256.296875 C 236.515625 255.800781 235.414062 256.097656 234.917969 256.960938 L 230.679688 264.328125 C 230.183594 265.191406 230.480469 266.292969 231.347656 266.789062 C 231.628906 266.953125 231.9375 267.03125 232.242188 267.03125 C 232.867188 267.03125 233.476562 266.707031 233.808594 266.125 L 238.042969 258.757812 C 238.539062 257.894531 238.242188 256.792969 237.378906 256.296875 Z M 237.378906 256.296875 " fill-opacity="1" fill-rule="nonzero"/><path fill="#1c7817" d="M 252.269531 212.625 C 251.789062 211.753906 250.691406 211.433594 249.820312 211.914062 C 248.945312 212.394531 248.628906 213.492188 249.105469 214.363281 L 253.199219 221.808594 C 253.527344 222.40625 254.144531 222.746094 254.78125 222.746094 C 255.078125 222.746094 255.375 222.671875 255.648438 222.523438 C 256.523438 222.042969 256.84375 220.945312 256.363281 220.070312 Z M 252.269531 212.625 " fill-opacity="1" fill-rule="nonzero"/><path fill="#1c7817" d="M 117.804688 235.707031 C 116.941406 235.210938 115.835938 235.507812 115.339844 236.371094 L 111.105469 243.734375 C 110.609375 244.601562 110.90625 245.703125 111.769531 246.199219 C 112.054688 246.363281 112.363281 246.441406 112.667969 246.441406 C 113.292969 246.441406 113.898438 246.113281 114.234375 245.535156 L 118.46875 238.167969 C 118.964844 237.304688 118.667969 236.203125 117.804688 235.707031 Z M 117.804688 235.707031 " fill-opacity="1" fill-rule="nonzero"/><path fill="#1c7817" d="M 253.4375 169.867188 C 253.796875 170.3125 254.320312 170.546875 254.847656 170.546875 C 255.242188 170.546875 255.640625 170.417969 255.972656 170.152344 C 256.753906 169.527344 256.878906 168.394531 256.257812 167.617188 L 250.953125 160.980469 C 250.328125 160.199219 249.195312 160.074219 248.414062 160.695312 C 247.636719 161.320312 247.511719 162.453125 248.132812 163.230469 Z M 253.4375 169.867188 " fill-opacity="1" fill-rule="nonzero"/><path fill="#1c7817" d="M 154.863281 100.871094 L 161.824219 105.738281 C 162.140625 105.957031 162.5 106.0625 162.855469 106.0625 C 163.425781 106.0625 163.988281 105.796875 164.335938 105.292969 C 164.910156 104.476562 164.710938 103.351562 163.894531 102.78125 L 156.929688 97.914062 C 156.113281 97.339844 154.988281 97.539062 154.417969 98.355469 C 153.847656 99.171875 154.046875 100.296875 154.863281 100.871094 Z M 154.863281 100.871094 " fill-opacity="1" fill-rule="nonzero"/><path fill="#1c7817" d="M 234.988281 114.199219 C 235.183594 114.199219 235.382812 114.167969 235.582031 114.097656 L 238.15625 113.203125 C 239.097656 112.875 239.597656 111.847656 239.269531 110.90625 C 238.941406 109.964844 237.914062 109.46875 236.972656 109.792969 L 234.394531 110.691406 C 233.457031 111.015625 232.957031 112.046875 233.285156 112.988281 C 233.542969 113.730469 234.242188 114.199219 234.988281 114.199219 Z M 234.988281 114.199219 " fill-opacity="1" fill-rule="nonzero"/><path fill="#1c7817" d="M 316.914062 213.753906 C 317.261719 214.261719 317.828125 214.535156 318.402344 214.535156 C 318.753906 214.535156 319.109375 214.433594 319.421875 214.222656 C 320.242188 213.65625 320.453125 212.535156 319.890625 211.714844 L 315.085938 204.703125 C 314.523438 203.882812 313.398438 203.671875 312.578125 204.234375 C 311.757812 204.800781 311.546875 205.921875 312.109375 206.742188 Z M 316.914062 213.753906 " fill-opacity="1" fill-rule="nonzero"/><path fill="#1c7817" d="M 102.753906 159.492188 L 110.976562 161.628906 C 111.128906 161.667969 111.28125 161.6875 111.433594 161.6875 C 112.234375 161.6875 112.964844 161.148438 113.175781 160.335938 C 113.425781 159.371094 112.847656 158.386719 111.886719 158.136719 L 103.660156 156 C 102.695312 155.75 101.710938 156.328125 101.460938 157.292969 C 101.210938 158.253906 101.789062 159.242188 102.753906 159.492188 Z M 102.753906 159.492188 " fill-opacity="1" fill-rule="nonzero"/><path fill="#1c7817" d="M 143.46875 228.59375 C 144.085938 228.59375 144.6875 228.273438 145.023438 227.703125 C 145.53125 226.84375 145.242188 225.738281 144.382812 225.234375 L 137.0625 220.925781 C 136.203125 220.421875 135.097656 220.707031 134.589844 221.566406 C 134.085938 222.425781 134.371094 223.53125 135.230469 224.035156 L 142.554688 228.34375 C 142.84375 228.511719 143.15625 228.59375 143.46875 228.59375 Z M 143.46875 228.59375 " fill-opacity="1" fill-rule="nonzero"/><path fill="#1c7817" d="M 199.878906 230.53125 L 192.535156 234.800781 C 191.671875 235.300781 191.378906 236.402344 191.878906 237.265625 C 192.214844 237.84375 192.820312 238.164062 193.441406 238.164062 C 193.75 238.164062 194.0625 238.085938 194.347656 237.917969 L 201.691406 233.648438 C 202.554688 233.148438 202.847656 232.046875 202.347656 231.183594 C 201.84375 230.320312 200.742188 230.03125 199.878906 230.53125 Z M 199.878906 230.53125 " fill-opacity="1" fill-rule="nonzero"/><path fill="#1c7817" d="M 71.421875 211.957031 C 70.5625 212.457031 70.269531 213.5625 70.769531 214.421875 C 71.105469 215 71.710938 215.320312 72.332031 215.320312 C 72.640625 215.320312 72.949219 215.242188 73.234375 215.078125 L 80.582031 210.808594 C 81.445312 210.308594 81.734375 209.203125 81.234375 208.339844 C 80.734375 207.480469 79.632812 207.1875 78.769531 207.6875 Z M 71.421875 211.957031 " fill-opacity="1" fill-rule="nonzero"/><path fill="#1c7817" d="M 198.980469 253.710938 L 191.785156 258.226562 C 190.941406 258.757812 190.6875 259.871094 191.214844 260.714844 C 191.558594 261.261719 192.144531 261.5625 192.746094 261.5625 C 193.074219 261.5625 193.40625 261.472656 193.703125 261.285156 L 200.898438 256.769531 C 201.742188 256.238281 201.996094 255.125 201.46875 254.28125 C 200.9375 253.4375 199.824219 253.183594 198.980469 253.710938 Z M 198.980469 253.710938 " fill-opacity="1" fill-rule="nonzero"/><path fill="#1c7817" d="M 162.273438 123.824219 L 159.003906 131.664062 C 158.621094 132.585938 159.058594 133.640625 159.976562 134.023438 C 160.203125 134.117188 160.4375 134.164062 160.671875 134.164062 C 161.375 134.164062 162.046875 133.746094 162.335938 133.054688 L 165.605469 125.210938 C 165.988281 124.289062 165.554688 123.234375 164.632812 122.851562 C 163.714844 122.46875 162.65625 122.902344 162.273438 123.824219 Z M 162.273438 123.824219 " fill-opacity="1" fill-rule="nonzero"/><path fill="#1c7817" d="M 215.167969 105.597656 C 215.519531 106.109375 216.085938 106.382812 216.660156 106.382812 C 217.011719 106.382812 217.367188 106.28125 217.675781 106.066406 C 218.5 105.503906 218.707031 104.378906 218.144531 103.558594 L 213.339844 96.550781 C 212.777344 95.726562 211.65625 95.519531 210.832031 96.082031 C 210.011719 96.644531 209.800781 97.769531 210.367188 98.589844 Z M 215.167969 105.597656 " fill-opacity="1" fill-rule="nonzero"/><path fill="#1c7817" d="M 120.238281 119.847656 C 120.589844 120.355469 121.15625 120.628906 121.730469 120.628906 C 122.082031 120.628906 122.4375 120.527344 122.746094 120.316406 C 123.570312 119.75 123.777344 118.628906 123.214844 117.804688 L 118.410156 110.796875 C 117.847656 109.976562 116.726562 109.765625 115.902344 110.332031 C 115.082031 110.894531 114.871094 112.015625 115.4375 112.839844 Z M 120.238281 119.847656 " fill-opacity="1" fill-rule="nonzero"/><path fill="#1c7817" d="M 271.304688 218.246094 C 270.480469 218.808594 270.273438 219.929688 270.835938 220.753906 L 275.640625 227.761719 C 275.988281 228.269531 276.554688 228.542969 277.128906 228.542969 C 277.480469 228.542969 277.835938 228.441406 278.148438 228.226562 C 278.96875 227.664062 279.179688 226.542969 278.617188 225.71875 L 273.8125 218.710938 C 273.25 217.890625 272.125 217.679688 271.304688 218.246094 Z M 271.304688 218.246094 " fill-opacity="1" fill-rule="nonzero"/><path fill="#1c7817" d="M 215.734375 136.019531 C 214.910156 136.585938 214.703125 137.707031 215.265625 138.53125 L 220.070312 145.539062 C 220.417969 146.046875 220.984375 146.320312 221.558594 146.320312 C 221.910156 146.320312 222.265625 146.21875 222.578125 146.003906 C 223.398438 145.441406 223.609375 144.320312 223.046875 143.496094 L 218.242188 136.488281 C 217.675781 135.667969 216.554688 135.457031 215.734375 136.019531 Z M 215.734375 136.019531 " fill-opacity="1" fill-rule="nonzero"/><path fill="#1c7817" d="M 236.503906 232.6875 C 236.355469 231.703125 235.441406 231.023438 234.453125 231.167969 L 226.050781 232.414062 C 225.0625 232.5625 224.382812 233.480469 224.53125 234.464844 C 224.664062 235.359375 225.433594 236.003906 226.3125 236.003906 C 226.398438 236.003906 226.488281 235.996094 226.578125 235.984375 L 234.984375 234.738281 C 235.96875 234.589844 236.648438 233.671875 236.503906 232.6875 Z M 236.503906 232.6875 " fill-opacity="1" fill-rule="nonzero"/><path fill="#1c7817" d="M 146.785156 265.378906 L 140.230469 270.785156 C 139.460938 271.417969 139.351562 272.554688 139.984375 273.324219 C 140.34375 273.757812 140.859375 273.980469 141.378906 273.980469 C 141.78125 273.980469 142.1875 273.847656 142.523438 273.570312 L 149.082031 268.164062 C 149.851562 267.53125 149.960938 266.394531 149.324219 265.625 C 148.691406 264.855469 147.554688 264.746094 146.785156 265.378906 Z M 146.785156 265.378906 " fill-opacity="1" fill-rule="nonzero"/><path fill="#1c7817" d="M 269.707031 181.691406 C 269.910156 182.511719 270.644531 183.0625 271.453125 183.0625 C 271.597656 183.0625 271.742188 183.042969 271.890625 183.007812 C 272.855469 182.769531 273.445312 181.792969 273.207031 180.824219 L 271.167969 172.574219 C 270.929688 171.609375 269.953125 171.019531 268.984375 171.257812 C 268.015625 171.496094 267.425781 172.476562 267.667969 173.441406 Z M 269.707031 181.691406 " fill-opacity="1" fill-rule="nonzero"/></svg>